M48
;GenerationSoftware,Autodesk,EAGLE,9.6.2*%
;CreationDate,2024-12-05T22:07:42Z*%
FMAT,2
ICI,OFF
METRIC,TZ,000.000
T5C0.305
T4C0.400
T3C0.650
T2C1.016
T1C3.302
%
G90
M71
T1
X43688Y178816
X72644Y117348
X90424Y117348
X49276Y125476
X20320Y2540
X2540Y2540
X2540Y55880
X20320Y55880
X49276Y178816
X20320Y125476
X43688Y2540
X25908Y2540
X25908Y55880
X43688Y55880
X2540Y125476
X2540Y178816
X67056Y2540
X49276Y2540
X49276Y55880
X67056Y55880
X20320Y178816
X67056Y178816
X90424Y2540
X72644Y2540
X72644Y55880
X90424Y55880
X72644Y178816
X43688Y125476
X20320Y64008
X2540Y64008
X2540Y117348
X20320Y117348
X25908Y125476
X25908Y178816
X43688Y64008
X25908Y64008
X25908Y117348
X43688Y117348
X90424Y178816
X90424Y125476
X67056Y64008
X49276Y64008
X49276Y117348
X67056Y117348
X72644Y125476
X67056Y125476
X90424Y64008
X72644Y64008
T2
X48006Y31750
X48006Y149606
X48006Y152146
X48006Y154686
X48006Y157226
X48006Y159766
X48006Y162306
X48006Y164846
X48006Y167386
X48006Y169926
X48006Y172466
X48006Y175006
X60706Y162306
X58166Y162306
X55626Y162306
X91694Y175006
X91694Y172466
X91694Y169926
X91694Y167386
X91694Y164846
X91694Y162306
X78994Y162306
X91694Y159766
X91694Y157226
X91694Y154686
X91694Y152146
X21590Y52070
X21590Y49530
X21590Y46990
X21590Y44450
X21590Y41910
X21590Y39370
X21590Y36830
X21590Y34290
X21590Y31750
X21590Y29210
X21590Y26670
X21590Y24130
X21590Y21590
X21590Y19050
X21590Y16510
X21590Y13970
X1270Y24130
X1270Y26670
X1270Y29210
X1270Y31750
X1270Y34290
X1270Y36830
X1270Y39370
X1270Y41910
X1270Y44450
X1270Y46990
X1270Y49530
X1270Y52070
X91694Y149606
X91694Y147066
X91694Y144526
X91694Y141986
X13970Y39370
X11430Y39370
X8890Y39370
X44958Y52070
X44958Y49530
X44958Y46990
X44958Y44450
X44958Y41910
X44958Y39370
X44958Y36830
X44958Y34290
X44958Y31750
X44958Y29210
X44958Y26670
X44958Y24130
X44958Y21590
X44958Y19050
X44958Y16510
X44958Y13970
X24638Y24130
X24638Y26670
X24638Y29210
X24638Y31750
X24638Y34290
X24638Y36830
X24638Y39370
X24638Y41910
X24638Y44450
X24638Y46990
X24638Y49530
X24638Y52070
X91694Y139446
X91694Y136906
X71374Y147066
X71374Y149606
X37338Y39370
X34798Y39370
X32258Y39370
X68326Y52070
X68326Y49530
X68326Y46990
X68326Y44450
X68326Y41910
X68326Y39370
X68326Y36830
X68326Y34290
X68326Y31750
X68326Y29210
X68326Y26670
X68326Y24130
X68326Y21590
X68326Y19050
X68326Y16510
X68326Y13970
X48006Y24130
X48006Y26670
X48006Y29210
X48006Y34290
X48006Y36830
X48006Y39370
X48006Y41910
X48006Y44450
X48006Y46990
X48006Y49530
X48006Y52070
X71374Y152146
X71374Y154686
X71374Y157226
X71374Y159766
X60706Y39370
X58166Y39370
X55626Y39370
X91694Y52070
X91694Y49530
X91694Y46990
X91694Y44450
X91694Y41910
X91694Y39370
X91694Y36830
X91694Y34290
X91694Y31750
X91694Y29210
X91694Y26670
X91694Y24130
X91694Y21590
X91694Y19050
X91694Y16510
X91694Y13970
X71374Y24130
X71374Y26670
X71374Y29210
X71374Y31750
X71374Y34290
X71374Y36830
X71374Y39370
X71374Y41910
X71374Y44450
X71374Y46990
X71374Y49530
X71374Y52070
X71374Y162306
X71374Y164846
X71374Y167386
X71374Y169926
X84074Y39370
X81534Y39370
X78994Y39370
X21590Y113538
X21590Y110998
X21590Y108458
X21590Y105918
X21590Y103378
X21590Y100838
X21590Y98298
X21590Y95758
X21590Y93218
X21590Y90678
X21590Y88138
X21590Y85598
X21590Y83058
X21590Y80518
X21590Y77978
X21590Y75438
X1270Y85598
X1270Y88138
X1270Y90678
X1270Y93218
X1270Y95758
X1270Y98298
X1270Y100838
X1270Y103378
X1270Y105918
X1270Y108458
X1270Y110998
X1270Y113538
X71374Y172466
X71374Y175006
X84074Y162306
X81534Y162306
X13970Y100838
X11430Y100838
X8890Y100838
X44958Y113538
X44958Y110998
X44958Y108458
X44958Y105918
X44958Y103378
X44958Y100838
X44958Y98298
X44958Y95758
X44958Y93218
X44958Y90678
X44958Y88138
X44958Y85598
X44958Y83058
X44958Y80518
X44958Y77978
X44958Y75438
X24638Y85598
X24638Y88138
X24638Y90678
X24638Y93218
X24638Y95758
X24638Y98298
X24638Y100838
X24638Y103378
X24638Y105918
X24638Y108458
X24638Y110998
X24638Y113538
X37338Y100838
X34798Y100838
X32258Y100838
X68326Y113538
X68326Y110998
X68326Y108458
X68326Y105918
X68326Y103378
X68326Y100838
X68326Y98298
X68326Y95758
X68326Y93218
X68326Y90678
X68326Y88138
X68326Y85598
X68326Y83058
X68326Y80518
X68326Y77978
X68326Y75438
X48006Y85598
X48006Y88138
X48006Y90678
X48006Y93218
X48006Y95758
X48006Y98298
X48006Y100838
X48006Y103378
X48006Y105918
X48006Y108458
X48006Y110998
X48006Y113538
X60706Y100838
X58166Y100838
X55626Y100838
X91694Y113538
X91694Y110998
X91694Y108458
X91694Y105918
X91694Y103378
X91694Y100838
X91694Y98298
X91694Y95758
X91694Y93218
X91694Y90678
X91694Y88138
X91694Y85598
X91694Y83058
X91694Y80518
X91694Y77978
X91694Y75438
X71374Y85598
X71374Y88138
X71374Y90678
X71374Y93218
X71374Y95758
X71374Y98298
X71374Y100838
X71374Y103378
X71374Y105918
X71374Y108458
X71374Y110998
X71374Y113538
X84074Y100838
X81534Y100838
X78994Y100838
X21590Y175006
X21590Y172466
X21590Y169926
X21590Y167386
X21590Y164846
X21590Y162306
X21590Y159766
X21590Y157226
X21590Y154686
X21590Y152146
X21590Y149606
X21590Y147066
X21590Y144526
X21590Y141986
X21590Y139446
X21590Y136906
X1270Y147066
X1270Y149606
X1270Y152146
X1270Y154686
X1270Y157226
X1270Y159766
X1270Y162306
X1270Y164846
X1270Y167386
X1270Y169926
X1270Y172466
X1270Y175006
X13970Y162306
X11430Y162306
X8890Y162306
X44958Y175006
X44958Y172466
X44958Y169926
X44958Y167386
X44958Y164846
X44958Y162306
X44958Y159766
X44958Y157226
X44958Y154686
X44958Y152146
X44958Y149606
X44958Y147066
X44958Y144526
X44958Y141986
X44958Y139446
X44958Y136906
X24638Y147066
X24638Y149606
X24638Y152146
X24638Y154686
X24638Y157226
X24638Y159766
X24638Y162306
X24638Y164846
X24638Y167386
X24638Y169926
X24638Y172466
X24638Y175006
X37338Y162306
X34798Y162306
X32258Y162306
X68326Y175006
X68326Y172466
X68326Y169926
X68326Y167386
X68326Y164846
X68326Y162306
X68326Y159766
X68326Y157226
X68326Y154686
X68326Y152146
X68326Y149606
X68326Y147066
X68326Y144526
X68326Y141986
X68326Y139446
X68326Y136906
X48006Y147066
T3
X8540Y4905
X14320Y4905
X31908Y4905
X37688Y4905
X55276Y4905
X61056Y4905
X78644Y4905
X84424Y4905
X8540Y66373
X14320Y66373
X31908Y66373
X37688Y66373
X55276Y66373
X61056Y66373
X78644Y66373
X84424Y66373
X8540Y127841
X14320Y127841
X31908Y127841
X37688Y127841
X55276Y127841
X61056Y127841
X78644Y127841
X84424Y127841
T4
X7112Y1255
X15748Y1255
X15748Y5435
X7112Y5435
X30480Y1255
X39116Y1255
X39116Y5435
X30480Y5435
X53848Y1255
X62484Y1255
X62484Y5435
X53848Y5435
X77216Y1255
X85852Y1255
X85852Y5435
X77216Y5435
X7112Y62723
X15748Y62723
X15748Y66903
X7112Y66903
X7112Y128371
X62484Y66903
X77216Y62723
X85852Y62723
X85852Y66903
X77216Y66903
X53848Y66903
X30480Y66903
X30480Y62723
X39116Y62723
X39116Y66903
X53848Y124191
X62484Y124191
X62484Y128371
X53848Y128371
X53848Y62723
X62484Y62723
X7112Y124191
X15748Y124191
X15748Y128371
X30480Y124191
X39116Y124191
X77216Y124191
X85852Y124191
X85852Y128371
X77216Y128371
X39116Y128371
X30480Y128371
T5
X60198Y22860
X59614Y29464
X56261Y20320
X58928Y29591
X56261Y21336
X61468Y27051
X61722Y24638
X60350Y30353
X57946Y33918
X68326Y5080
X50038Y12192
X48641Y17780
X54483Y27635
X50292Y32766
X49784Y33249
X49276Y32766
X55702Y36347
X55626Y34315
X56363Y36093
X63754Y33655
X60293Y33636
X51689Y36195
X62992Y46736
X65532Y32512
X60325Y9906
X60325Y11557
X63246Y34117
X52959Y11176
X52959Y10668
X61595Y14732
X61595Y14224
X51689Y35052
X50927Y30480
X56896Y13970
X59817Y15621
X62865Y20320
X64516Y20193
X60706Y34290
X63881Y34417
X64516Y34798
X59639Y33960
X56007Y10287
X52908Y8077
X60325Y32512
X58801Y23622
X82169Y32385
X82169Y31115
X80899Y31115
X80899Y32385
X81382Y26213
X84074Y25400
X79731Y36779
X84455Y36195
X87884Y33401
X75184Y42545
X88392Y31115
X82144Y37516
X78018Y4424
X85050Y4424
X78232Y26924
X77724Y26416
X76835Y25654
X77089Y53340
X78359Y53340
X79629Y53340
X80899Y53340
X82169Y53340
X83439Y53340
X84709Y53340
X85979Y53340
X72644Y53340
X90424Y53340
X72644Y48260
X88265Y42799
X84150Y16739
X77978Y44450
X75057Y28956
X87884Y14859
X75184Y30734
X75057Y27940
X75184Y31369
X75057Y37084
X87884Y27813
X76215Y8895
X75097Y11409
X73914Y18923
X79669Y9504
X84455Y8763
X84328Y12446
X85090Y18161
X76073Y13589
X80518Y18161
X72644Y30480
X86360Y45720
X88900Y39370
X86360Y8890
X88519Y635
X92329Y4445
X74549Y635
X70739Y4445
X78359Y635
X84709Y635
X90424Y10160
X86614Y48260
X90424Y50800
X77978Y46355
X84455Y46736
X72009Y18923
X73406Y11430
X88900Y35306
X78207Y35077
X81534Y10414
X75819Y24130
X77089Y17755
X81534Y24130
X82804Y20955
X77851Y22479
X81534Y12700
X79502Y4953
X83566Y4953
X80645Y4699
X82423Y4699
X75946Y14732
X77089Y22479
X82423Y34341
X79070Y37033
X86995Y40767
X86995Y40005
X75311Y26035
X85598Y26924
X87122Y25400
X79045Y31877
X79578Y29159
X75906Y29678
X85268Y16256
X84734Y16256
X87884Y15621
X87376Y4572
X85979Y48895
X84125Y29210
X82931Y20142
X88138Y32639
X78740Y15748
X74864Y18923
X83693Y31775
X75184Y6604
X72390Y10668
X73279Y6350
X83693Y31064
X74041Y9525
X89027Y31750
X88011Y30423
X88697Y29896
X78994Y30842
X79045Y30150
X77174Y30258
X76581Y36322
X90424Y30099
X90424Y30861
X80696Y34239
X87884Y17780
X77724Y21336
X76454Y48895
X76454Y30226
X77597Y40894
X79045Y32588
X75184Y32385
X75184Y39370
X76454Y46609
X82931Y40894
X79045Y33299
X76454Y20320
X73533Y30480
X84963Y12954
X81610Y29591
X79629Y22225
X83058Y21844
X83651Y26755
X84328Y26543
X83566Y22860
X82982Y29464
X79629Y20320
X82296Y29591
X79629Y21336
X84836Y27051
X85090Y24638
X83718Y30353
X81314Y33918
X91694Y5080
X73406Y12192
X72009Y17780
X77851Y27635
X73660Y32766
X73152Y33249
X72644Y32766
X79070Y36347
X78994Y34315
X79731Y36093
X87122Y33655
X83661Y33636
X75057Y36195
X86360Y46736
X88900Y32512
X83693Y9906
X83693Y11557
X86614Y34117
X76327Y11176
X76327Y10668
X84963Y14732
X84963Y14224
X75057Y35052
X74295Y30480
X80264Y13970
X83185Y15621
X86233Y20320
X87884Y20193
X84074Y34290
X87249Y34417
X87884Y34798
X83007Y33960
X79375Y10287
X76276Y8077
X83693Y32512
X82169Y23622
X12065Y93853
X12065Y92583
X10795Y92583
X10795Y93853
X11278Y87681
X13970Y86868
X9627Y98247
X14351Y97663
X17780Y94869
X5080Y104013
X18288Y92583
X12040Y98984
X7914Y65892
X14946Y65892
X8128Y88392
X7620Y87884
X6731Y87122
X6985Y114808
X8255Y114808
X9525Y114808
X10795Y114808
X12065Y114808
X13335Y114808
X14605Y114808
X15875Y114808
X2540Y114808
X20320Y114808
X2540Y109728
X18161Y104267
X14046Y78207
X7874Y105918
X4953Y90424
X17780Y76327
X5080Y92202
X4953Y89408
X5080Y92837
X4953Y98552
X17780Y89281
X6111Y70363
X4993Y72877
X3810Y80391
X9565Y70972
X14351Y70231
X14224Y73914
X14986Y79629
X5969Y75057
X10414Y79629
X2540Y91948
X16256Y107188
X18796Y100838
X16256Y70358
X18415Y62103
X22225Y65913
X4445Y62103
X635Y65913
X8255Y62103
X14605Y62103
X20320Y71628
X16510Y109728
X20320Y112268
X7874Y107823
X14351Y108204
X1905Y80391
X3302Y72898
X18796Y96774
X8103Y96545
X11430Y71882
X5715Y85598
X6985Y79223
X11430Y85598
X12700Y82423
X7747Y83947
X11430Y74168
X9398Y66421
X13462Y66421
X10541Y66167
X12319Y66167
X5842Y76200
X6985Y83947
X12319Y95809
X8966Y98501
X16891Y102235
X16891Y101473
X5207Y87503
X15494Y88392
X17018Y86868
X8941Y93345
X9474Y90627
X5802Y91146
X15164Y77724
X14630Y77724
X17780Y77089
X17272Y66040
X15875Y110363
X14021Y90678
X12827Y81610
X18034Y94107
X8636Y77216
X4760Y80391
X13589Y93243
X5080Y68072
X2286Y72136
X3175Y67818
X13589Y92532
X3937Y70993
X18923Y93218
X17907Y91891
X18593Y91364
X8890Y92310
X8941Y91618
X7070Y91726
X6477Y97790
X20320Y91567
X20320Y92329
X10592Y95707
X17780Y79248
X7620Y82804
X6350Y110363
X6350Y91694
X7493Y102362
X8941Y94056
X5080Y93853
X5080Y100838
X6350Y108077
X12827Y102362
X8941Y94767
X6350Y81788
X3429Y91948
X14859Y74422
X11506Y91059
X9525Y83693
X12954Y83312
X13547Y88223
X14224Y88011
X13462Y84328
X12878Y90932
X9525Y81788
X12192Y91059
X9525Y82804
X14732Y88519
X14986Y86106
X13614Y91821
X11210Y95386
X21590Y66548
X3302Y73660
X1905Y79248
X7747Y89103
X3556Y94234
X3048Y94717
X2540Y94234
X8966Y97815
X8890Y95783
X9627Y97561
X17018Y95123
X13557Y95104
X4953Y97663
X16256Y108204
X18796Y93980
X13589Y71374
X13589Y73025
X16510Y95585
X6223Y72644
X6223Y72136
X14859Y76200
X14859Y75692
X4953Y96520
X4191Y91948
X10160Y75438
X13081Y77089
X16129Y81788
X17780Y81661
X13970Y95758
X17145Y95885
X17780Y96266
X12903Y95428
X9271Y71755
X6172Y69545
X13589Y93980
X12065Y85090
X35433Y93853
X35433Y92583
X34163Y92583
X34163Y93853
X34646Y87681
X37338Y86868
X32995Y98247
X37719Y97663
X41148Y94869
X28448Y104013
X41656Y92583
X35408Y98984
X31282Y65892
X38314Y65892
X31496Y88392
X30988Y87884
X30099Y87122
X30353Y114808
X31623Y114808
X32893Y114808
X34163Y114808
X35433Y114808
X36703Y114808
X37973Y114808
X39243Y114808
X25908Y114808
X43688Y114808
X25908Y109728
X41529Y104267
X37414Y78207
X31242Y105918
X28321Y90424
X41148Y76327
X28448Y92202
X28321Y89408
X28448Y92837
X28321Y98552
X41148Y89281
X29479Y70363
X28361Y72877
X27178Y80391
X32933Y70972
X37719Y70231
X37592Y73914
X38354Y79629
X29337Y75057
X33782Y79629
X25908Y91948
X39624Y107188
X42164Y100838
X39624Y70358
X41783Y62103
X45593Y65913
X27813Y62103
X24003Y65913
X31623Y62103
X37973Y62103
X43688Y71628
X39878Y109728
X43688Y112268
X31242Y107823
X37719Y108204
X25273Y80391
X26670Y72898
X42164Y96774
X31471Y96545
X34798Y71882
X29083Y85598
X30353Y79223
X34798Y85598
X36068Y82423
X31115Y83947
X34798Y74168
X32766Y66421
X36830Y66421
X33909Y66167
X35687Y66167
X29210Y76200
X30353Y83947
X35687Y95809
X32334Y98501
X40259Y102235
X40259Y101473
X28575Y87503
X38862Y88392
X40386Y86868
X32309Y93345
X32842Y90627
X29170Y91146
X38532Y77724
X37998Y77724
X41148Y77089
X40640Y66040
X39243Y110363
X37389Y90678
X36195Y81610
X41402Y94107
X32004Y77216
X28128Y80391
X36957Y93243
X28448Y68072
X25654Y72136
X26543Y67818
X36957Y92532
X27305Y70993
X42291Y93218
X41275Y91891
X41961Y91364
X32258Y92310
X32309Y91618
X30438Y91726
X29845Y97790
X43688Y91567
X43688Y92329
X33960Y95707
X41148Y79248
X30988Y82804
X29718Y110363
X29718Y91694
X30861Y102362
X32309Y94056
X28448Y93853
X28448Y100838
X29718Y108077
X36195Y102362
X32309Y94767
X29718Y81788
X26797Y91948
X38227Y74422
X34874Y91059
X32893Y83693
X36322Y83312
X36915Y88223
X37592Y88011
X36830Y84328
X36246Y90932
X32893Y81788
X35560Y91059
X32893Y82804
X38100Y88519
X38354Y86106
X36982Y91821
X34578Y95386
X44958Y66548
X26670Y73660
X25273Y79248
X31115Y89103
X26924Y94234
X26416Y94717
X25908Y94234
X32334Y97815
X32258Y95783
X32995Y97561
X40386Y95123
X36925Y95104
X28321Y97663
X39624Y108204
X42164Y93980
X36957Y71374
X36957Y73025
X39878Y95585
X29591Y72644
X29591Y72136
X38227Y76200
X38227Y75692
X28321Y96520
X27559Y91948
X33528Y75438
X36449Y77089
X39497Y81788
X41148Y81661
X37338Y95758
X40513Y95885
X41148Y96266
X36271Y95428
X32639Y71755
X29540Y69545
X36957Y93980
X35433Y85090
X58801Y93853
X58801Y92583
X57531Y92583
X57531Y93853
X58014Y87681
X60706Y86868
X56363Y98247
X61087Y97663
X64516Y94869
X51816Y104013
X65024Y92583
X58776Y98984
X54650Y65892
X61682Y65892
X54864Y88392
X54356Y87884
X53467Y87122
X53721Y114808
X54991Y114808
X56261Y114808
X57531Y114808
X58801Y114808
X60071Y114808
X61341Y114808
X62611Y114808
X49276Y114808
X67056Y114808
X49276Y109728
X64897Y104267
X60782Y78207
X54610Y105918
X51689Y90424
X64516Y76327
X51816Y92202
X51689Y89408
X51816Y92837
X51689Y98552
X64516Y89281
X52847Y70363
X51729Y72877
X50546Y80391
X56301Y70972
X61087Y70231
X60960Y73914
X61722Y79629
X52705Y75057
X57150Y79629
X49276Y91948
X62992Y107188
X65532Y100838
X62992Y70358
X65151Y62103
X68961Y65913
X51181Y62103
X47371Y65913
X54991Y62103
X61341Y62103
X67056Y71628
X63246Y109728
X67056Y112268
X54610Y107823
X61087Y108204
X48641Y80391
X50038Y72898
X65532Y96774
X54839Y96545
X58166Y71882
X52451Y85598
X53721Y79223
X58166Y85598
X59436Y82423
X54483Y83947
X58166Y74168
X56134Y66421
X60198Y66421
X57277Y66167
X59055Y66167
X52578Y76200
X53721Y83947
X59055Y95809
X55702Y98501
X63627Y102235
X63627Y101473
X51943Y87503
X62230Y88392
X63754Y86868
X55677Y93345
X56210Y90627
X52538Y91146
X61900Y77724
X61366Y77724
X64516Y77089
X64008Y66040
X62611Y110363
X60757Y90678
X59563Y81610
X64770Y94107
X55372Y77216
X51496Y80391
X60325Y93243
X51816Y68072
X49022Y72136
X49911Y67818
X60325Y92532
X50673Y70993
X65659Y93218
X64643Y91891
X65329Y91364
X55626Y92310
X55677Y91618
X53806Y91726
X53213Y97790
X67056Y91567
X67056Y92329
X57328Y95707
X64516Y79248
X54356Y82804
X53086Y110363
X53086Y91694
X54229Y102362
X55677Y94056
X51816Y93853
X51816Y100838
X53086Y108077
X59563Y102362
X55677Y94767
X53086Y81788
X50165Y91948
X61595Y74422
X58242Y91059
X56261Y83693
X59690Y83312
X60283Y88223
X60960Y88011
X60198Y84328
X59614Y90932
X56261Y81788
X58928Y91059
X56261Y82804
X61468Y88519
X61722Y86106
X60350Y91821
X57946Y95386
X68326Y66548
X50038Y73660
X48641Y79248
X54483Y89103
X50292Y94234
X49784Y94717
X49276Y94234
X55702Y97815
X55626Y95783
X56363Y97561
X63754Y95123
X60293Y95104
X51689Y97663
X62992Y108204
X65532Y93980
X60325Y71374
X60325Y73025
X63246Y95585
X52959Y72644
X52959Y72136
X61595Y76200
X61595Y75692
X51689Y96520
X50927Y91948
X56896Y75438
X59817Y77089
X62865Y81788
X64516Y81661
X60706Y95758
X63881Y95885
X64516Y96266
X59639Y95428
X56007Y71755
X52908Y69545
X60325Y93980
X58801Y85090
X82169Y93853
X82169Y92583
X80899Y92583
X80899Y93853
X81382Y87681
X84074Y86868
X79731Y98247
X84455Y97663
X87884Y94869
X75184Y104013
X88392Y92583
X82144Y98984
X78018Y65892
X85050Y65892
X78232Y88392
X77724Y87884
X76835Y87122
X77089Y114808
X78359Y114808
X79629Y114808
X80899Y114808
X82169Y114808
X83439Y114808
X84709Y114808
X85979Y114808
X72644Y114808
X90424Y114808
X72644Y109728
X88265Y104267
X84150Y78207
X77978Y105918
X75057Y90424
X87884Y76327
X75184Y92202
X75057Y89408
X75184Y92837
X75057Y98552
X87884Y89281
X76215Y70363
X75097Y72877
X73914Y80391
X79669Y70972
X84455Y70231
X84328Y73914
X85090Y79629
X76073Y75057
X80518Y79629
X72644Y91948
X86360Y107188
X88900Y100838
X86360Y70358
X88519Y62103
X92329Y65913
X74549Y62103
X70739Y65913
X78359Y62103
X84709Y62103
X90424Y71628
X86614Y109728
X90424Y112268
X77978Y107823
X84455Y108204
X72009Y80391
X73406Y72898
X88900Y96774
X78207Y96545
X81534Y71882
X32258Y34315
X77089Y79223
X81534Y85598
X82804Y82423
X77851Y83947
X81534Y74168
X79502Y66421
X83566Y66421
X80645Y66167
X82423Y66167
X75946Y76200
X77089Y83947
X82423Y95809
X79070Y98501
X86995Y102235
X86995Y101473
X75311Y87503
X85598Y88392
X87122Y86868
X79045Y93345
X79578Y90627
X75906Y91146
X85268Y77724
X84734Y77724
X87884Y77089
X87376Y66040
X85979Y110363
X84125Y90678
X82931Y81610
X88138Y94107
X78740Y77216
X74864Y80391
X83693Y93243
X75184Y68072
X72390Y72136
X73279Y67818
X83693Y92532
X74041Y70993
X89027Y93218
X88011Y91891
X88697Y91364
X78994Y92310
X79045Y91618
X77174Y91726
X76581Y97790
X90424Y91567
X90424Y92329
X80696Y95707
X87884Y79248
X77724Y82804
X76454Y110363
X76454Y91694
X77597Y102362
X79045Y94056
X75184Y93853
X75184Y100838
X76454Y108077
X82931Y102362
X79045Y94767
X76454Y81788
X73533Y91948
X84963Y74422
X81610Y91059
X79629Y83693
X83058Y83312
X83651Y88223
X84328Y88011
X83566Y84328
X82982Y90932
X79629Y81788
X82296Y91059
X79629Y82804
X84836Y88519
X85090Y86106
X83718Y91821
X81314Y95386
X91694Y66548
X73406Y73660
X72009Y79248
X77851Y89103
X73660Y94234
X73152Y94717
X72644Y94234
X79070Y97815
X78994Y95783
X79731Y97561
X87122Y95123
X83661Y95104
X75057Y97663
X86360Y108204
X88900Y93980
X83693Y71374
X83693Y73025
X86614Y95585
X76327Y72644
X76327Y72136
X84963Y76200
X84963Y75692
X75057Y96520
X74295Y91948
X80264Y75438
X83185Y77089
X86233Y81788
X87884Y81661
X84074Y95758
X87249Y95885
X87884Y96266
X83007Y95428
X79375Y71755
X76276Y69545
X83693Y93980
X82169Y85090
X12065Y155321
X12065Y154051
X10795Y154051
X10795Y155321
X11278Y149149
X13970Y148336
X9627Y159715
X14351Y159131
X17780Y156337
X5080Y165481
X18288Y154051
X12040Y160452
X7914Y127360
X14946Y127360
X8128Y149860
X7620Y149352
X6731Y148590
X6985Y176276
X8255Y176276
X9525Y176276
X10795Y176276
X12065Y176276
X13335Y176276
X14605Y176276
X15875Y176276
X2540Y176276
X20320Y176276
X2540Y171196
X18161Y165735
X14046Y139675
X7874Y167386
X4953Y151892
X17780Y137795
X5080Y153670
X4953Y150876
X5080Y154305
X4953Y160020
X17780Y150749
X6111Y131831
X4993Y134345
X3810Y141859
X9565Y132440
X14351Y131699
X14224Y135382
X14986Y141097
X5969Y136525
X10414Y141097
X2540Y153416
X16256Y168656
X18796Y162306
X16256Y131826
X18415Y123571
X22225Y127381
X4445Y123571
X635Y127381
X8255Y123571
X14605Y123571
X20320Y133096
X16510Y171196
X20320Y173736
X7874Y169291
X14351Y169672
X1905Y141859
X3302Y134366
X18796Y158242
X8103Y158013
X11430Y133350
X5715Y147066
X6985Y140691
X11430Y147066
X12700Y143891
X7747Y145415
X11430Y135636
X9398Y127889
X13462Y127889
X10541Y127635
X12319Y127635
X5842Y137668
X6985Y145415
X12319Y157277
X8966Y159969
X16891Y163703
X16891Y162941
X5207Y148971
X15494Y149860
X17018Y148336
X8941Y154813
X9474Y152095
X5802Y152614
X15164Y139192
X14630Y139192
X17780Y138557
X17272Y127508
X15875Y171831
X14021Y152146
X12827Y143078
X18034Y155575
X8636Y138684
X4760Y141859
X13589Y154711
X5080Y129540
X2286Y133604
X3175Y129286
X13589Y154000
X3937Y132461
X18923Y154686
X17907Y153359
X18593Y152832
X8890Y153778
X8941Y153086
X7070Y153194
X6477Y159258
X20320Y153035
X20320Y153797
X10592Y157175
X17780Y140716
X7620Y144272
X6350Y171831
X6350Y153162
X7493Y163830
X8941Y155524
X5080Y155321
X5080Y162306
X6350Y169545
X12827Y163830
X8941Y156235
X6350Y143256
X3429Y153416
X14859Y135890
X11506Y152527
X9525Y145161
X12954Y144780
X13547Y149691
X14224Y149479
X13462Y145796
X12878Y152400
X9525Y143256
X12192Y152527
X9525Y144272
X14732Y149987
X14986Y147574
X13614Y153289
X11210Y156854
X21590Y128016
X3302Y135128
X1905Y140716
X7747Y150571
X3556Y155702
X3048Y156185
X2540Y155702
X8966Y159283
X8890Y157251
X9627Y159029
X17018Y156591
X13557Y156572
X4953Y159131
X16256Y169672
X18796Y155448
X13589Y132842
X13589Y134493
X16510Y157053
X6223Y134112
X6223Y133604
X14859Y137668
X14859Y137160
X4953Y157988
X4191Y153416
X10160Y136906
X13081Y138557
X16129Y143256
X17780Y143129
X13970Y157226
X17145Y157353
X17780Y157734
X12903Y156896
X9271Y133223
X6172Y131013
X13589Y155448
X12065Y146558
X35433Y155321
X35433Y154051
X34163Y154051
X34163Y155321
X34646Y149149
X37338Y148336
X32995Y159715
X37719Y159131
X41148Y156337
X28448Y165481
X41656Y154051
X35408Y160452
X31282Y127360
X38314Y127360
X31496Y149860
X30988Y149352
X30099Y148590
X30353Y176276
X31623Y176276
X32893Y176276
X34163Y176276
X35433Y176276
X36703Y176276
X37973Y176276
X39243Y176276
X25908Y176276
X43688Y176276
X25908Y171196
X41529Y165735
X37414Y139675
X31242Y167386
X28321Y151892
X41148Y137795
X28448Y153670
X28321Y150876
X28448Y154305
X28321Y160020
X41148Y150749
X29479Y131831
X28361Y134345
X27178Y141859
X32933Y132440
X37719Y131699
X37592Y135382
X38354Y141097
X29337Y136525
X33782Y141097
X25908Y153416
X39624Y168656
X42164Y162306
X39624Y131826
X41783Y123571
X45593Y127381
X27813Y123571
X24003Y127381
X31623Y123571
X37973Y123571
X43688Y133096
X39878Y171196
X43688Y173736
X31242Y169291
X37719Y169672
X25273Y141859
X26670Y134366
X42164Y158242
X31471Y158013
X34798Y133350
X29083Y147066
X30353Y140691
X34798Y147066
X36068Y143891
X31115Y145415
X34798Y135636
X32766Y127889
X36830Y127889
X33909Y127635
X35687Y127635
X29210Y137668
X30353Y145415
X35687Y157277
X32334Y159969
X40259Y163703
X40259Y162941
X28575Y148971
X38862Y149860
X40386Y148336
X32309Y154813
X32842Y152095
X29170Y152614
X38532Y139192
X37998Y139192
X41148Y138557
X40640Y127508
X39243Y171831
X37389Y152146
X36195Y143078
X41402Y155575
X32004Y138684
X28128Y141859
X36957Y154711
X28448Y129540
X25654Y133604
X26543Y129286
X36957Y154000
X27305Y132461
X42291Y154686
X41275Y153359
X41961Y152832
X32258Y153778
X32309Y153086
X30438Y153194
X29845Y159258
X43688Y153035
X43688Y153797
X33960Y157175
X41148Y140716
X30988Y144272
X29718Y171831
X29718Y153162
X30861Y163830
X32309Y155524
X28448Y155321
X28448Y162306
X29718Y169545
X36195Y163830
X32309Y156235
X29718Y143256
X26797Y153416
X38227Y135890
X34874Y152527
X32893Y145161
X36322Y144780
X36915Y149691
X37592Y149479
X36830Y145796
X36246Y152400
X32893Y143256
X35560Y152527
X32893Y144272
X38100Y149987
X38354Y147574
X36982Y153289
X34578Y156854
X44958Y128016
X26670Y135128
X25273Y140716
X31115Y150571
X26924Y155702
X26416Y156185
X25908Y155702
X32334Y159283
X32258Y157251
X32995Y159029
X40386Y156591
X36925Y156572
X28321Y159131
X39624Y169672
X42164Y155448
X36957Y132842
X36957Y134493
X39878Y157053
X29591Y134112
X29591Y133604
X38227Y137668
X38227Y137160
X28321Y157988
X27559Y153416
X33528Y136906
X36449Y138557
X39497Y143256
X41148Y143129
X37338Y157226
X40513Y157353
X41148Y157734
X36271Y156896
X32639Y133223
X29540Y131013
X36957Y155448
X35433Y146558
X58801Y155321
X58801Y154051
X57531Y154051
X57531Y155321
X58014Y149149
X60706Y148336
X56363Y159715
X61087Y159131
X64516Y156337
X51816Y165481
X65024Y154051
X58776Y160452
X54650Y127360
X61682Y127360
X54864Y149860
X54356Y149352
X53467Y148590
X53721Y176276
X54991Y176276
X56261Y176276
X57531Y176276
X58801Y176276
X60071Y176276
X61341Y176276
X62611Y176276
X49276Y176276
X67056Y176276
X49276Y171196
X64897Y165735
X60782Y139675
X54610Y167386
X51689Y151892
X64516Y137795
X51816Y153670
X51689Y150876
X51816Y154305
X51689Y160020
X64516Y150749
X52847Y131831
X51729Y134345
X50546Y141859
X56301Y132440
X61087Y131699
X60960Y135382
X61722Y141097
X52705Y136525
X57150Y141097
X49276Y153416
X62992Y168656
X65532Y162306
X62992Y131826
X65151Y123571
X68961Y127381
X51181Y123571
X47371Y127381
X54991Y123571
X61341Y123571
X67056Y133096
X63246Y171196
X67056Y173736
X54610Y169291
X61087Y169672
X48641Y141859
X50038Y134366
X65532Y158242
X54839Y158013
X58166Y133350
X52451Y147066
X53721Y140691
X58166Y147066
X59436Y143891
X54483Y145415
X58166Y135636
X56134Y127889
X60198Y127889
X57277Y127635
X59055Y127635
X52578Y137668
X53721Y145415
X59055Y157277
X55702Y159969
X63627Y163703
X63627Y162941
X51943Y148971
X62230Y149860
X63754Y148336
X55677Y154813
X56210Y152095
X52538Y152614
X61900Y139192
X61366Y139192
X64516Y138557
X64008Y127508
X62611Y171831
X60757Y152146
X59563Y143078
X64770Y155575
X55372Y138684
X51496Y141859
X60325Y154711
X51816Y129540
X49022Y133604
X49911Y129286
X60325Y154000
X50673Y132461
X65659Y154686
X64643Y153359
X65329Y152832
X55626Y153778
X55677Y153086
X53806Y153194
X53213Y159258
X67056Y153035
X67056Y153797
X57328Y157175
X64516Y140716
X54356Y144272
X53086Y171831
X53086Y153162
X54229Y163830
X55677Y155524
X51816Y155321
X51816Y162306
X53086Y169545
X59563Y163830
X55677Y156235
X53086Y143256
X50165Y153416
X61595Y135890
X58242Y152527
X56261Y145161
X59690Y144780
X60283Y149691
X60960Y149479
X60198Y145796
X59614Y152400
X56261Y143256
X58928Y152527
X56261Y144272
X61468Y149987
X61722Y147574
X60350Y153289
X57946Y156854
X68326Y128016
X50038Y135128
X48641Y140716
X54483Y150571
X50292Y155702
X49784Y156185
X49276Y155702
X55702Y159283
X55626Y157251
X56363Y159029
X63754Y156591
X60293Y156572
X51689Y159131
X62992Y169672
X65532Y155448
X60325Y132842
X60325Y134493
X63246Y157053
X52959Y134112
X52959Y133604
X61595Y137668
X61595Y137160
X51689Y157988
X50927Y153416
X56896Y136906
X59817Y138557
X62865Y143256
X64516Y143129
X60706Y157226
X63881Y157353
X64516Y157734
X59639Y156896
X56007Y133223
X52908Y131013
X60325Y155448
X58801Y146558
X82169Y155321
X82169Y154051
X80899Y154051
X80899Y155321
X81382Y149149
X84074Y148336
X79731Y159715
X84455Y159131
X87884Y156337
X75184Y165481
X12065Y32385
X82144Y160452
X78018Y127360
X85050Y127360
X78232Y149860
X77724Y149352
X76835Y148590
X77089Y176276
X78359Y176276
X79629Y176276
X80899Y176276
X82169Y176276
X83439Y176276
X84709Y176276
X85979Y176276
X72644Y176276
X90424Y176276
X72644Y171196
X88265Y165735
X84150Y139675
X77978Y167386
X75057Y151892
X87884Y137795
X75184Y153670
X75057Y150876
X75184Y154305
X75057Y160020
X87884Y150749
X76215Y131831
X75097Y134345
X73914Y141859
X79669Y132440
X84455Y131699
X84328Y135382
X85090Y141097
X76073Y136525
X80518Y141097
X72644Y153416
X86360Y168656
X88900Y162306
X86360Y131826
X88519Y123571
X92329Y127381
X74549Y123571
X70739Y127381
X78359Y123571
X84709Y123571
X90424Y133096
X86614Y171196
X90424Y173736
X77978Y169291
X84455Y169672
X72009Y141859
X73406Y134366
X88900Y158242
X78207Y158013
X81534Y133350
X75819Y147066
X77089Y140691
X81534Y147066
X82804Y143891
X77851Y145415
X81534Y135636
X79502Y127889
X83566Y127889
X80645Y127635
X82423Y127635
X75946Y137668
X77089Y145415
X82423Y157277
X79070Y159969
X86995Y163703
X86995Y162941
X75311Y148971
X85598Y149860
X87122Y148336
X79045Y154813
X79578Y152095
X75906Y152614
X85268Y139192
X84734Y139192
X87884Y138557
X87376Y127508
X85979Y171831
X84125Y152146
X82931Y143078
X88138Y155575
X78740Y138684
X74864Y141859
X83693Y154711
X75184Y129540
X72390Y133604
X73279Y129286
X83693Y154000
X74041Y132461
X89027Y154686
X88011Y153359
X88697Y152832
X78994Y153778
X79045Y153086
X77174Y153194
X76581Y159258
X90424Y153035
X90424Y153797
X80696Y157175
X87884Y140716
X77724Y144272
X76454Y171831
X76454Y153162
X77597Y163830
X79045Y155524
X75184Y155321
X75184Y162306
X76454Y169545
X82931Y163830
X79045Y156235
X76454Y143256
X73533Y153416
X84963Y135890
X81610Y152527
X79629Y145161
X83058Y144780
X83651Y149691
X84328Y149479
X83566Y145796
X82982Y152400
X79629Y143256
X82296Y152527
X79629Y144272
X84836Y149987
X85090Y147574
X83718Y153289
X81314Y156854
X91694Y128016
X73406Y135128
X72009Y140716
X77851Y150571
X73660Y155702
X73152Y156185
X72644Y155702
X79070Y159283
X78994Y157251
X79731Y159029
X87122Y156591
X83661Y156572
X75057Y159131
X86360Y169672
X88900Y155448
X83693Y132842
X83693Y134493
X86614Y157053
X76327Y134112
X76327Y133604
X84963Y137668
X84963Y137160
X75057Y157988
X74295Y153416
X80264Y136906
X83185Y138557
X86233Y143256
X87884Y143129
X84074Y157226
X87249Y157353
X87884Y157734
X83007Y156896
X79375Y133223
X76276Y131013
X83693Y155448
X82169Y146558
X12065Y31115
X10795Y31115
X10795Y32385
X11278Y26213
X13970Y25400
X9627Y36779
X14351Y36195
X17780Y33401
X5080Y42545
X18288Y31115
X12040Y37516
X7914Y4424
X14946Y4424
X8128Y26924
X7620Y26416
X6731Y25654
X6985Y53340
X8255Y53340
X9525Y53340
X10795Y53340
X12065Y53340
X13335Y53340
X14605Y53340
X15875Y53340
X2540Y53340
X20320Y53340
X2540Y48260
X18161Y42799
X14046Y16739
X7874Y44450
X4953Y28956
X17780Y14859
X5080Y30734
X4953Y27940
X5080Y31369
X4953Y37084
X17780Y27813
X6111Y8895
X4993Y11409
X3810Y18923
X9565Y9504
X14351Y8763
X14224Y12446
X14986Y18161
X5969Y13589
X10414Y18161
X2540Y30480
X16256Y45720
X18796Y39370
X16256Y8890
X18415Y635
X22225Y4445
X4445Y635
X635Y4445
X8255Y635
X14605Y635
X20320Y10160
X16510Y48260
X20320Y50800
X7874Y46355
X14351Y46736
X1905Y18923
X3302Y11430
X18796Y35306
X8103Y35077
X11430Y10414
X5715Y24130
X6985Y17755
X11430Y24130
X12700Y20955
X7747Y22479
X11430Y12700
X9398Y4953
X13462Y4953
X10541Y4699
X12319Y4699
X5842Y14732
X6985Y22479
X12319Y34341
X8966Y37033
X16891Y40767
X16891Y40005
X5207Y26035
X15494Y26924
X17018Y25400
X8941Y31877
X9474Y29159
X5802Y29678
X15164Y16256
X14630Y16256
X17780Y15621
X17272Y4572
X15875Y48895
X14021Y29210
X12827Y20142
X18034Y32639
X8636Y15748
X4760Y18923
X13589Y31775
X5080Y6604
X2286Y10668
X3175Y6350
X13589Y31064
X3937Y9525
X18923Y31750
X17907Y30423
X18593Y29896
X8890Y30842
X8941Y30150
X7070Y30258
X6477Y36322
X20320Y30099
X20320Y30861
X10592Y34239
X17780Y17780
X7620Y21336
X6350Y48895
X6350Y30226
X7493Y40894
X8941Y32588
X5080Y32385
X5080Y39370
X6350Y46609
X12827Y40894
X8941Y33299
X6350Y20320
X3429Y30480
X14859Y12954
X11506Y29591
X9525Y22225
X12954Y21844
X13547Y26755
X14224Y26543
X13462Y22860
X12878Y29464
X9525Y20320
X12192Y29591
X9525Y21336
X14732Y27051
X14986Y24638
X13614Y30353
X11210Y33918
X21590Y5080
X3302Y12192
X1905Y17780
X7747Y27635
X3556Y32766
X3048Y33249
X2540Y32766
X8966Y36347
X8890Y34315
X9627Y36093
X17018Y33655
X13557Y33636
X4953Y36195
X16256Y46736
X18796Y32512
X13589Y9906
X13589Y11557
X16510Y34117
X6223Y11176
X75819Y85598
X6223Y10668
X14859Y14732
X14859Y14224
X4953Y35052
X4191Y30480
X10160Y13970
X13081Y15621
X16129Y20320
X17780Y20193
X13970Y34290
X17145Y34417
X17780Y34798
X12903Y33960
X9271Y10287
X6172Y8077
X13589Y32512
X12065Y23622
X35433Y32385
X35433Y31115
X34163Y31115
X34163Y32385
X34646Y26213
X37338Y25400
X32995Y36779
X37719Y36195
X41148Y33401
X28448Y42545
X41656Y31115
X35408Y37516
X31282Y4424
X38314Y4424
X31496Y26924
X30988Y26416
X30099Y25654
X30353Y53340
X31623Y53340
X32893Y53340
X34163Y53340
X35433Y53340
X36703Y53340
X37973Y53340
X39243Y53340
X25908Y53340
X43688Y53340
X25908Y48260
X41529Y42799
X37414Y16739
X31242Y44450
X28321Y28956
X41148Y14859
X28448Y30734
X28321Y27940
X28448Y31369
X28321Y37084
X41148Y27813
X29479Y8895
X28361Y11409
X27178Y18923
X32933Y9504
X37719Y8763
X37592Y12446
X38354Y18161
X29337Y13589
X33782Y18161
X25908Y30480
X39624Y45720
X42164Y39370
X39624Y8890
X41783Y635
X45593Y4445
X27813Y635
X24003Y4445
X31623Y635
X37973Y635
X43688Y10160
X39878Y48260
X43688Y50800
X31242Y46355
X37719Y46736
X25273Y18923
X26670Y11430
X42164Y35306
X31471Y35077
X34798Y10414
X29083Y24130
X30353Y17755
X34798Y24130
X36068Y20955
X31115Y22479
X34798Y12700
X32766Y4953
X36830Y4953
X33909Y4699
X35687Y4699
X29210Y14732
X30353Y22479
X35687Y34341
X32334Y37033
X40259Y40767
X40259Y40005
X28575Y26035
X38862Y26924
X40386Y25400
X32309Y31877
X32842Y29159
X29170Y29678
X38532Y16256
X37998Y16256
X41148Y15621
X40640Y4572
X39243Y48895
X37389Y29210
X36195Y20142
X41402Y32639
X32004Y15748
X28128Y18923
X36957Y31775
X28448Y6604
X25654Y10668
X26543Y6350
X36957Y31064
X27305Y9525
X42291Y31750
X41275Y30423
X41961Y29896
X32258Y30842
X32309Y30150
X30438Y30258
X29845Y36322
X43688Y30099
X43688Y30861
X33960Y34239
X41148Y17780
X30988Y21336
X29718Y48895
X29718Y30226
X30861Y40894
X32309Y32588
X28448Y32385
X28448Y39370
X29718Y46609
X36195Y40894
X32309Y33299
X29718Y20320
X26797Y30480
X38227Y12954
X34874Y29591
X32893Y22225
X36322Y21844
X36915Y26755
X37592Y26543
X36830Y22860
X36246Y29464
X32893Y20320
X35560Y29591
X32893Y21336
X38100Y27051
X38354Y24638
X36982Y30353
X34578Y33918
X44958Y5080
X26670Y12192
X25273Y17780
X31115Y27635
X26924Y32766
X26416Y33249
X25908Y32766
X32334Y36347
X32995Y36093
X40386Y33655
X36925Y33636
X28321Y36195
X39624Y46736
X42164Y32512
X36957Y9906
X36957Y11557
X39878Y34117
X29591Y11176
X29591Y10668
X38227Y14732
X38227Y14224
X28321Y35052
X27559Y30480
X33528Y13970
X36449Y15621
X39497Y20320
X41148Y20193
X37338Y34290
X40513Y34417
X41148Y34798
X36271Y33960
X32639Y10287
X29540Y8077
X36957Y32512
X35433Y23622
X58801Y32385
X58801Y31115
X57531Y31115
X57531Y32385
X58014Y26213
X60706Y25400
X56363Y36779
X61087Y36195
X64516Y33401
X51816Y42545
X65024Y31115
X58776Y37516
X54650Y4424
X61682Y4424
X54864Y26924
X54356Y26416
X53467Y25654
X53721Y53340
X54991Y53340
X56261Y53340
X57531Y53340
X58801Y53340
X60071Y53340
X61341Y53340
X62611Y53340
X49276Y53340
X67056Y53340
X49276Y48260
X64897Y42799
X60782Y16739
X54610Y44450
X51689Y28956
X64516Y14859
X51816Y30734
X51689Y27940
X51816Y31369
X51689Y37084
X64516Y27813
X52847Y8895
X51729Y11409
X50546Y18923
X56301Y9504
X61087Y8763
X60960Y12446
X61722Y18161
X52705Y13589
X57150Y18161
X49276Y30480
X62992Y45720
X65532Y39370
X62992Y8890
X65151Y635
X68961Y4445
X51181Y635
X47371Y4445
X54991Y635
X61341Y635
X67056Y10160
X63246Y48260
X67056Y50800
X54610Y46355
X61087Y46736
X48641Y18923
X50038Y11430
X65532Y35306
X54839Y35077
X58166Y10414
X52451Y24130
X53721Y17755
X58166Y24130
X59436Y20955
X54483Y22479
X58166Y12700
X56134Y4953
X60198Y4953
X57277Y4699
X59055Y4699
X52578Y14732
X53721Y22479
X59055Y34341
X55702Y37033
X63627Y40767
X63627Y40005
X51943Y26035
X62230Y26924
X63754Y25400
X55677Y31877
X56210Y29159
X52538Y29678
X61900Y16256
X61366Y16256
X64516Y15621
X64008Y4572
X62611Y48895
X60757Y29210
X59563Y20142
X64770Y32639
X55372Y15748
X51496Y18923
X60325Y31775
X51816Y6604
X49022Y10668
X49911Y6350
X60325Y31064
X50673Y9525
X65659Y31750
X64643Y30423
X65329Y29896
X55626Y30842
X55677Y30150
X53806Y30258
X53213Y36322
X67056Y30099
X67056Y30861
X57328Y34239
X64516Y17780
X54356Y21336
X53086Y48895
X53086Y30226
X54229Y40894
X55677Y32588
X51816Y32385
X51816Y39370
X53086Y46609
X59563Y40894
X55677Y33299
X53086Y20320
X50165Y30480
X61595Y12954
X58242Y29591
X56261Y22225
X59690Y21844
X60283Y26755
X60960Y26543
X88392Y154051
M30