M48
;GenerationSoftware,Autodesk,EAGLE,9.6.2*%
;CreationDate,2024-02-20T21:06:05Z*%
FMAT,2
ICI,OFF
METRIC,TZ,000.000
T5C0.305
T4C0.400
T3C0.650
T2C1.016
T1C3.302
%
G90
M71
T1
X25908Y55880
X43688Y55880
X49276Y55880
X67056Y55880
X20320Y2540
X2540Y2540
X2540Y55880
X20320Y55880
X67056Y2540
X49276Y2540
X43688Y2540
X25908Y2540
T2
X55626Y39370
X1270Y49530
X48006Y34290
X48006Y36830
X48006Y39370
X48006Y41910
X48006Y44450
X21590Y26670
X21590Y52070
X21590Y49530
X21590Y46990
X21590Y44450
X21590Y41910
X21590Y39370
X21590Y36830
X21590Y34290
X21590Y31750
X21590Y29210
X48006Y46990
X21590Y24130
X21590Y21590
X21590Y19050
X21590Y16510
X21590Y13970
X1270Y24130
X1270Y26670
X1270Y29210
X1270Y31750
X1270Y34290
X1270Y36830
X1270Y39370
X1270Y41910
X1270Y44450
X1270Y46990
X1270Y52070
X48006Y49530
X48006Y52070
X60706Y39370
X58166Y39370
X13970Y39370
X11430Y39370
X8890Y39370
X44958Y52070
X44958Y49530
X44958Y46990
X44958Y44450
X44958Y41910
X44958Y39370
X44958Y36830
X44958Y34290
X44958Y31750
X44958Y29210
X44958Y26670
X44958Y24130
X44958Y21590
X44958Y19050
X44958Y16510
X44958Y13970
X24638Y24130
X24638Y26670
X24638Y29210
X24638Y31750
X24638Y34290
X24638Y36830
X24638Y39370
X24638Y41910
X24638Y44450
X24638Y46990
X24638Y49530
X24638Y52070
X37338Y39370
X34798Y39370
X32258Y39370
X68326Y52070
X68326Y49530
X68326Y46990
X68326Y44450
X68326Y41910
X68326Y39370
X68326Y36830
X68326Y34290
X68326Y31750
X68326Y29210
X68326Y26670
X68326Y24130
X68326Y21590
X68326Y19050
X68326Y16510
X68326Y13970
X48006Y24130
X48006Y26670
X48006Y29210
X48006Y31750
T3
X8540Y4905
X14320Y4905
X31908Y4905
X37688Y4905
X55276Y4905
X61056Y4905
T4
X7112Y1255
X15748Y1255
X15748Y5435
X7112Y5435
X39116Y1255
X39116Y5435
X53848Y1255
X62484Y1255
X62484Y5435
X53848Y5435
X30480Y5435
X30480Y1255
T5
X8941Y33299
X6350Y20320
X3429Y30480
X14859Y12954
X11887Y29210
X13843Y29210
X13589Y26670
X13208Y29591
X12471Y29591
X14478Y26670
X14021Y30658
X11210Y33918
X21590Y5080
X3302Y12192
X1905Y17780
X7747Y27635
X3556Y32766
X3048Y33249
X2540Y32766
X8966Y36347
X8890Y34315
X9627Y36093
X17018Y33655
X13557Y33636
X4953Y36068
X16256Y46736
X18415Y32258
X13589Y9906
X13589Y11557
X16510Y34117
X6223Y11176
X6223Y10668
X14859Y14732
X14859Y14224
X4953Y35052
X4191Y30480
X10160Y13970
X13081Y15621
X14986Y19050
X17780Y20574
X13970Y34290
X17145Y34417
X17780Y34798
X13081Y34290
X9271Y10287
X6172Y8077
X35433Y32385
X35433Y31115
X34163Y31115
X34163Y32385
X34646Y26213
X35839Y25019
X32995Y36779
X37719Y36195
X41275Y32766
X28448Y42545
X41402Y31115
X35408Y37516
X31282Y4424
X38314Y4424
X31496Y26924
X30988Y26416
X30099Y25654
X30353Y53340
X31623Y53340
X32893Y53340
X34163Y53340
X35433Y53340
X36703Y53340
X37973Y53340
X39243Y53340
X25908Y53340
X43688Y53340
X25908Y48260
X41529Y42799
X37414Y16739
X31242Y44450
X28321Y28956
X41148Y14859
X28448Y30734
X28321Y27940
X28448Y31369
X28321Y37084
X41148Y27813
X29479Y8895
X28361Y11409
X27178Y18923
X30480Y19939
X32933Y9504
X37719Y8763
X37592Y12446
X38354Y18161
X29337Y13589
X33782Y18161
X25908Y30480
X39624Y45720
X42164Y39370
X39624Y8890
X41783Y635
X45593Y4445
X27813Y635
X24003Y4445
X31623Y635
X37973Y635
X43688Y10160
X39878Y48260
X43688Y50800
X31242Y46355
X37719Y46736
X38608Y20955
X25273Y18923
X26670Y11430
X42164Y35306
X31471Y35077
X34798Y10414
X34798Y12700
X32766Y4953
X36830Y4953
X33909Y4699
X35687Y4699
X29210Y14732
X30607Y22479
X35687Y34341
X32334Y37033
X40259Y40767
X40259Y40005
X37338Y33071
X28575Y26035
X38862Y26924
X40386Y25400
X32309Y31877
X32842Y29159
X29170Y29678
X31496Y19812
X38532Y16256
X37998Y16256
X41148Y15621
X40640Y4572
X39243Y48895
X37338Y29972
X36068Y20320
X32004Y15748
X28128Y18923
X36957Y32055
X28448Y6604
X25654Y10668
X26543Y6350
X36957Y31318
X27305Y9525
X42291Y31750
X41021Y30423
X41961Y29896
X32258Y30842
X32309Y30150
X30438Y30258
X29845Y36322
X43688Y30099
X43688Y30861
X33960Y34239
X41148Y17780
X32766Y19812
X29718Y48895
X29718Y30226
X30861Y40894
X32309Y32588
X28448Y32385
X28448Y39370
X29718Y46609
X36195Y40894
X32309Y33299
X29718Y20320
X26797Y30480
X38227Y12954
X35255Y29210
X37211Y29210
X36957Y26670
X36576Y29591
X35839Y29591
X37846Y26670
X37389Y30658
X34578Y33918
X44958Y5080
X26670Y12192
X25273Y17780
X31115Y27635
X26924Y32766
X26416Y33249
X25908Y32766
X32334Y36347
X32258Y34315
X32995Y36093
X40386Y33655
X16891Y40767
X28321Y36068
X39624Y46736
X41783Y32258
X36957Y9906
X36957Y11557
X39878Y34117
X29591Y11176
X29591Y10668
X38227Y14732
X38227Y14224
X28321Y35052
X27559Y30480
X33528Y13970
X36449Y15621
X38354Y19050
X41148Y20574
X37338Y34290
X40513Y34417
X41148Y34798
X36449Y34290
X32639Y10287
X29540Y8077
X58801Y32385
X58801Y31115
X57531Y31115
X57531Y32385
X58014Y26213
X59207Y25019
X56363Y36779
X61087Y36195
X64643Y32766
X51816Y42545
X64770Y31115
X58776Y37516
X54650Y4424
X61682Y4424
X54864Y26924
X54356Y26416
X53467Y25654
X53721Y53340
X54991Y53340
X56261Y53340
X57531Y53340
X58801Y53340
X60071Y53340
X61341Y53340
X62611Y53340
X49276Y53340
X67056Y53340
X49276Y48260
X64897Y42799
X60782Y16739
X54610Y44450
X51689Y28956
X64516Y14859
X51816Y30734
X51689Y27940
X51816Y31369
X51689Y37084
X64516Y27813
X52847Y8895
X51729Y11409
X50546Y18923
X53848Y19939
X56301Y9504
X61087Y8763
X60960Y12446
X61722Y18161
X52705Y13589
X57150Y18161
X49276Y30480
X62992Y45720
X65532Y39370
X62992Y8890
X65151Y635
X68961Y4445
X51181Y635
X47371Y4445
X54991Y635
X61341Y635
X67056Y10160
X63246Y48260
X67056Y50800
X54610Y46355
X61087Y46736
X61976Y20955
X48641Y18923
X50038Y11430
X65532Y35306
X54839Y35077
X58166Y10414
X58166Y12700
X56134Y4953
X60198Y4953
X57277Y4699
X59055Y4699
X52578Y14732
X53975Y22479
X59055Y34341
X55702Y37033
X63627Y40767
X63627Y40005
X60706Y33071
X51943Y26035
X62230Y26924
X63754Y25400
X55677Y31877
X56210Y29159
X52538Y29678
X54864Y19812
X61900Y16256
X61366Y16256
X64516Y15621
X64008Y4572
X62611Y48895
X60706Y29972
X59436Y20320
X55372Y15748
X51496Y18923
X60325Y32055
X51816Y6604
X49022Y10668
X49911Y6350
X60325Y31318
X50673Y9525
X65659Y31750
X64389Y30423
X65329Y29896
X55626Y30842
X55677Y30150
X53806Y30258
X53213Y36322
X67056Y30099
X67056Y30861
X57328Y34239
X64516Y17780
X56134Y19812
X53086Y48895
X53086Y30226
X54229Y40894
X55677Y32588
X51816Y32385
X51816Y39370
X53086Y46609
X59563Y40894
X55677Y33299
X53086Y20320
X50165Y30480
X61595Y12954
X58623Y29210
X60579Y29210
X60325Y26670
X59944Y29591
X59207Y29591
X61214Y26670
X60757Y30658
X57946Y33918
X12065Y32385
X50038Y12192
X48641Y17780
X54483Y27635
X50292Y32766
X49784Y33249
X49276Y32766
X55702Y36347
X55626Y34315
X56363Y36093
X63754Y33655
X60293Y33636
X51689Y36068
X62992Y46736
X65151Y32258
X60325Y9906
X60325Y11557
X63246Y34117
X52959Y11176
X52959Y10668
X61595Y14732
X61595Y14224
X51689Y35052
X50927Y30480
X56896Y13970
X59817Y15621
X61722Y19050
X64516Y20574
X60706Y34290
X63881Y34417
X64516Y34798
X59817Y34290
X56007Y10287
X52908Y8077
X12065Y31115
X10795Y31115
X10795Y32385
X11278Y26213
X12471Y25019
X9627Y36779
X14351Y36195
X17907Y32766
X5080Y42545
X18034Y31115
X12040Y37516
X7914Y4424
X14946Y4424
X8128Y26924
X7620Y26416
X6731Y25654
X6985Y53340
X8255Y53340
X9525Y53340
X10795Y53340
X12065Y53340
X13335Y53340
X14605Y53340
X15875Y53340
X2540Y53340
X20320Y53340
X2540Y48260
X18161Y42799
X14046Y16739
X7874Y44450
X4953Y28956
X17780Y14859
X5080Y30734
X4953Y27940
X5080Y31369
X4953Y37084
X17780Y27813
X6111Y8895
X4993Y11409
X3810Y18923
X7112Y19939
X9565Y9504
X14351Y8763
X14224Y12446
X36925Y33636
X14986Y18161
X5969Y13589
X10414Y18161
X2540Y30480
X16256Y45720
X18796Y39370
X16256Y8890
X18415Y635
X22225Y4445
X4445Y635
X635Y4445
X8255Y635
X14605Y635
X20320Y10160
X16510Y48260
X20320Y50800
X7874Y46355
X14351Y46736
X15240Y20955
X1905Y18923
X3302Y11430
X18796Y35306
X8103Y35077
X11430Y10414
X11430Y12700
X9398Y4953
X13462Y4953
X10541Y4699
X12319Y4699
X5842Y14732
X7239Y22479
X12319Y34341
X8966Y37033
X16891Y40005
X13970Y33071
X5207Y26035
X15494Y26924
X17018Y25400
X8941Y31877
X9474Y29159
X5802Y29678
X8128Y19812
X15164Y16256
X14630Y16256
X17780Y15621
X17272Y4572
X15875Y48895
X13970Y29972
X12700Y20320
X8636Y15748
X4760Y18923
X13589Y32055
X5080Y6604
X2286Y10668
X3175Y6350
X13589Y31318
X3937Y9525
X18923Y31750
X17653Y30423
X18593Y29896
X8890Y30842
X8941Y30150
X7070Y30258
X6477Y36322
X20320Y30099
X20320Y30861
X10592Y34239
X17780Y17780
X9398Y19812
X6350Y48895
X6350Y30226
X7493Y40894
X8941Y32588
X5080Y32385
X5080Y39370
X6350Y46609
X12827Y40894
X68326Y5080
M30