G04 EAGLE Gerber RS-274X export*
G75*
%MOMM*%
%FSLAX34Y34*%
%LPD*%
%INSoldermask Bottom*%
%IPPOS*%
%AMOC8*
5,1,8,0,0,1.08239X$1,22.5*%
G01*
%ADD10C,2.006600*%
%ADD11C,0.777000*%
%ADD12C,3.429000*%
%ADD13C,0.228344*%
%ADD14C,0.225369*%
%ADD15C,0.223409*%
%ADD16R,0.770000X0.400000*%
%ADD17C,0.225719*%
%ADD18C,0.228928*%
%ADD19C,0.226169*%
%ADD20C,1.397000*%
%ADD21C,0.762000*%
%ADD22C,1.127000*%
%ADD23C,1.270000*%
%ADD24C,1.627000*%

G36*
X119616Y207356D02*
X119616Y207356D01*
X119633Y207353D01*
X119683Y207375D01*
X119734Y207390D01*
X119745Y207403D01*
X119761Y207410D01*
X119791Y207455D01*
X119826Y207495D01*
X119829Y207512D01*
X119838Y207527D01*
X119849Y207600D01*
X119849Y243350D01*
X119832Y243408D01*
X119820Y243466D01*
X119812Y243478D01*
X119810Y243484D01*
X119802Y243491D01*
X119776Y243526D01*
X113276Y250026D01*
X113224Y250055D01*
X113174Y250088D01*
X113159Y250090D01*
X113154Y250093D01*
X113143Y250093D01*
X113100Y250099D01*
X109000Y250099D01*
X108984Y250094D01*
X108967Y250097D01*
X108917Y250075D01*
X108866Y250060D01*
X108855Y250047D01*
X108839Y250040D01*
X108809Y249995D01*
X108774Y249955D01*
X108771Y249938D01*
X108762Y249924D01*
X108751Y249850D01*
X108751Y207600D01*
X108756Y207584D01*
X108753Y207567D01*
X108775Y207517D01*
X108790Y207466D01*
X108803Y207455D01*
X108810Y207439D01*
X108855Y207409D01*
X108895Y207374D01*
X108912Y207371D01*
X108927Y207362D01*
X109000Y207351D01*
X119600Y207351D01*
X119616Y207356D01*
G37*
G36*
X353296Y207356D02*
X353296Y207356D01*
X353313Y207353D01*
X353363Y207375D01*
X353414Y207390D01*
X353425Y207403D01*
X353441Y207410D01*
X353471Y207455D01*
X353506Y207495D01*
X353509Y207512D01*
X353518Y207527D01*
X353529Y207600D01*
X353529Y243350D01*
X353512Y243408D01*
X353500Y243466D01*
X353492Y243478D01*
X353490Y243484D01*
X353482Y243491D01*
X353456Y243526D01*
X346956Y250026D01*
X346904Y250055D01*
X346854Y250088D01*
X346839Y250090D01*
X346834Y250093D01*
X346823Y250093D01*
X346780Y250099D01*
X342680Y250099D01*
X342664Y250094D01*
X342647Y250097D01*
X342597Y250075D01*
X342546Y250060D01*
X342535Y250047D01*
X342519Y250040D01*
X342489Y249995D01*
X342454Y249955D01*
X342451Y249938D01*
X342442Y249924D01*
X342431Y249850D01*
X342431Y207600D01*
X342436Y207584D01*
X342433Y207567D01*
X342455Y207517D01*
X342470Y207466D01*
X342483Y207455D01*
X342490Y207439D01*
X342535Y207409D01*
X342575Y207374D01*
X342592Y207371D01*
X342607Y207362D01*
X342680Y207351D01*
X353280Y207351D01*
X353296Y207356D01*
G37*
G36*
X586976Y207356D02*
X586976Y207356D01*
X586993Y207353D01*
X587043Y207375D01*
X587094Y207390D01*
X587105Y207403D01*
X587121Y207410D01*
X587151Y207455D01*
X587186Y207495D01*
X587189Y207512D01*
X587198Y207527D01*
X587209Y207600D01*
X587209Y243350D01*
X587192Y243408D01*
X587180Y243466D01*
X587172Y243478D01*
X587170Y243484D01*
X587162Y243491D01*
X587136Y243526D01*
X580636Y250026D01*
X580584Y250055D01*
X580534Y250088D01*
X580519Y250090D01*
X580514Y250093D01*
X580503Y250093D01*
X580460Y250099D01*
X576360Y250099D01*
X576344Y250094D01*
X576327Y250097D01*
X576277Y250075D01*
X576226Y250060D01*
X576215Y250047D01*
X576199Y250040D01*
X576169Y249995D01*
X576134Y249955D01*
X576131Y249938D01*
X576122Y249924D01*
X576111Y249850D01*
X576111Y207600D01*
X576116Y207584D01*
X576113Y207567D01*
X576135Y207517D01*
X576150Y207466D01*
X576163Y207455D01*
X576170Y207439D01*
X576215Y207409D01*
X576255Y207374D01*
X576272Y207371D01*
X576287Y207362D01*
X576360Y207351D01*
X586960Y207351D01*
X586976Y207356D01*
G37*
G36*
X14035Y91452D02*
X14035Y91452D01*
X14101Y91454D01*
X14144Y91472D01*
X14191Y91480D01*
X14248Y91514D01*
X14308Y91539D01*
X14343Y91570D01*
X14384Y91595D01*
X14426Y91646D01*
X14474Y91690D01*
X14496Y91732D01*
X14525Y91769D01*
X14546Y91831D01*
X14577Y91890D01*
X14585Y91944D01*
X14597Y91981D01*
X14596Y92021D01*
X14604Y92075D01*
X14604Y95885D01*
X14593Y95950D01*
X14591Y96016D01*
X14573Y96059D01*
X14565Y96106D01*
X14531Y96163D01*
X14506Y96223D01*
X14475Y96258D01*
X14450Y96299D01*
X14399Y96341D01*
X14355Y96389D01*
X14313Y96411D01*
X14276Y96440D01*
X14214Y96461D01*
X14155Y96492D01*
X14101Y96500D01*
X14064Y96512D01*
X14024Y96511D01*
X13970Y96519D01*
X11430Y96519D01*
X11365Y96508D01*
X11299Y96506D01*
X11256Y96488D01*
X11209Y96480D01*
X11152Y96446D01*
X11092Y96421D01*
X11057Y96390D01*
X11016Y96365D01*
X10975Y96314D01*
X10926Y96270D01*
X10904Y96228D01*
X10875Y96191D01*
X10854Y96129D01*
X10823Y96070D01*
X10815Y96016D01*
X10803Y95979D01*
X10803Y95975D01*
X10803Y95974D01*
X10804Y95939D01*
X10796Y95885D01*
X10796Y92075D01*
X10807Y92010D01*
X10809Y91944D01*
X10827Y91901D01*
X10835Y91854D01*
X10869Y91797D01*
X10894Y91737D01*
X10925Y91702D01*
X10950Y91661D01*
X11001Y91620D01*
X11045Y91571D01*
X11087Y91549D01*
X11124Y91520D01*
X11186Y91499D01*
X11245Y91468D01*
X11299Y91460D01*
X11336Y91448D01*
X11376Y91449D01*
X11430Y91441D01*
X13970Y91441D01*
X14035Y91452D01*
G37*
G36*
X247715Y91452D02*
X247715Y91452D01*
X247781Y91454D01*
X247824Y91472D01*
X247871Y91480D01*
X247928Y91514D01*
X247988Y91539D01*
X248023Y91570D01*
X248064Y91595D01*
X248106Y91646D01*
X248154Y91690D01*
X248176Y91732D01*
X248205Y91769D01*
X248226Y91831D01*
X248257Y91890D01*
X248265Y91944D01*
X248277Y91981D01*
X248276Y92021D01*
X248284Y92075D01*
X248284Y95885D01*
X248273Y95950D01*
X248271Y96016D01*
X248253Y96059D01*
X248245Y96106D01*
X248211Y96163D01*
X248186Y96223D01*
X248155Y96258D01*
X248130Y96299D01*
X248079Y96341D01*
X248035Y96389D01*
X247993Y96411D01*
X247956Y96440D01*
X247894Y96461D01*
X247835Y96492D01*
X247781Y96500D01*
X247744Y96512D01*
X247704Y96511D01*
X247650Y96519D01*
X245110Y96519D01*
X245045Y96508D01*
X244979Y96506D01*
X244936Y96488D01*
X244889Y96480D01*
X244832Y96446D01*
X244772Y96421D01*
X244737Y96390D01*
X244696Y96365D01*
X244655Y96314D01*
X244606Y96270D01*
X244584Y96228D01*
X244555Y96191D01*
X244534Y96129D01*
X244503Y96070D01*
X244495Y96016D01*
X244483Y95979D01*
X244483Y95975D01*
X244483Y95974D01*
X244484Y95939D01*
X244476Y95885D01*
X244476Y92075D01*
X244487Y92010D01*
X244489Y91944D01*
X244507Y91901D01*
X244515Y91854D01*
X244549Y91797D01*
X244574Y91737D01*
X244605Y91702D01*
X244630Y91661D01*
X244681Y91620D01*
X244725Y91571D01*
X244767Y91549D01*
X244804Y91520D01*
X244866Y91499D01*
X244925Y91468D01*
X244979Y91460D01*
X245016Y91448D01*
X245056Y91449D01*
X245110Y91441D01*
X247650Y91441D01*
X247715Y91452D01*
G37*
G36*
X481395Y91452D02*
X481395Y91452D01*
X481461Y91454D01*
X481504Y91472D01*
X481551Y91480D01*
X481608Y91514D01*
X481668Y91539D01*
X481703Y91570D01*
X481744Y91595D01*
X481786Y91646D01*
X481834Y91690D01*
X481856Y91732D01*
X481885Y91769D01*
X481906Y91831D01*
X481937Y91890D01*
X481945Y91944D01*
X481957Y91981D01*
X481956Y92021D01*
X481964Y92075D01*
X481964Y95885D01*
X481953Y95950D01*
X481951Y96016D01*
X481933Y96059D01*
X481925Y96106D01*
X481891Y96163D01*
X481866Y96223D01*
X481835Y96258D01*
X481810Y96299D01*
X481759Y96341D01*
X481715Y96389D01*
X481673Y96411D01*
X481636Y96440D01*
X481574Y96461D01*
X481515Y96492D01*
X481461Y96500D01*
X481424Y96512D01*
X481384Y96511D01*
X481330Y96519D01*
X478790Y96519D01*
X478725Y96508D01*
X478659Y96506D01*
X478616Y96488D01*
X478569Y96480D01*
X478512Y96446D01*
X478452Y96421D01*
X478417Y96390D01*
X478376Y96365D01*
X478335Y96314D01*
X478286Y96270D01*
X478264Y96228D01*
X478235Y96191D01*
X478214Y96129D01*
X478183Y96070D01*
X478175Y96016D01*
X478163Y95979D01*
X478163Y95975D01*
X478163Y95974D01*
X478164Y95939D01*
X478156Y95885D01*
X478156Y92075D01*
X478167Y92010D01*
X478169Y91944D01*
X478187Y91901D01*
X478195Y91854D01*
X478229Y91797D01*
X478254Y91737D01*
X478285Y91702D01*
X478310Y91661D01*
X478361Y91620D01*
X478405Y91571D01*
X478447Y91549D01*
X478484Y91520D01*
X478546Y91499D01*
X478605Y91468D01*
X478659Y91460D01*
X478696Y91448D01*
X478736Y91449D01*
X478790Y91441D01*
X481330Y91441D01*
X481395Y91452D01*
G37*
G36*
X14035Y81292D02*
X14035Y81292D01*
X14101Y81294D01*
X14144Y81312D01*
X14191Y81320D01*
X14248Y81354D01*
X14308Y81379D01*
X14343Y81410D01*
X14384Y81435D01*
X14426Y81486D01*
X14474Y81530D01*
X14496Y81572D01*
X14525Y81609D01*
X14546Y81671D01*
X14577Y81730D01*
X14585Y81784D01*
X14597Y81821D01*
X14596Y81861D01*
X14604Y81915D01*
X14604Y85725D01*
X14593Y85790D01*
X14591Y85856D01*
X14573Y85899D01*
X14565Y85946D01*
X14531Y86003D01*
X14506Y86063D01*
X14475Y86098D01*
X14450Y86139D01*
X14399Y86181D01*
X14355Y86229D01*
X14313Y86251D01*
X14276Y86280D01*
X14214Y86301D01*
X14155Y86332D01*
X14101Y86340D01*
X14064Y86352D01*
X14024Y86351D01*
X13970Y86359D01*
X11430Y86359D01*
X11365Y86348D01*
X11299Y86346D01*
X11256Y86328D01*
X11209Y86320D01*
X11152Y86286D01*
X11092Y86261D01*
X11057Y86230D01*
X11016Y86205D01*
X10975Y86154D01*
X10926Y86110D01*
X10904Y86068D01*
X10875Y86031D01*
X10854Y85969D01*
X10823Y85910D01*
X10815Y85856D01*
X10803Y85819D01*
X10803Y85815D01*
X10803Y85814D01*
X10804Y85779D01*
X10796Y85725D01*
X10796Y81915D01*
X10807Y81850D01*
X10809Y81784D01*
X10827Y81741D01*
X10835Y81694D01*
X10869Y81637D01*
X10894Y81577D01*
X10925Y81542D01*
X10950Y81501D01*
X11001Y81460D01*
X11045Y81411D01*
X11087Y81389D01*
X11124Y81360D01*
X11186Y81339D01*
X11245Y81308D01*
X11299Y81300D01*
X11336Y81288D01*
X11376Y81289D01*
X11430Y81281D01*
X13970Y81281D01*
X14035Y81292D01*
G37*
G36*
X247715Y81292D02*
X247715Y81292D01*
X247781Y81294D01*
X247824Y81312D01*
X247871Y81320D01*
X247928Y81354D01*
X247988Y81379D01*
X248023Y81410D01*
X248064Y81435D01*
X248106Y81486D01*
X248154Y81530D01*
X248176Y81572D01*
X248205Y81609D01*
X248226Y81671D01*
X248257Y81730D01*
X248265Y81784D01*
X248277Y81821D01*
X248276Y81861D01*
X248284Y81915D01*
X248284Y85725D01*
X248273Y85790D01*
X248271Y85856D01*
X248253Y85899D01*
X248245Y85946D01*
X248211Y86003D01*
X248186Y86063D01*
X248155Y86098D01*
X248130Y86139D01*
X248079Y86181D01*
X248035Y86229D01*
X247993Y86251D01*
X247956Y86280D01*
X247894Y86301D01*
X247835Y86332D01*
X247781Y86340D01*
X247744Y86352D01*
X247704Y86351D01*
X247650Y86359D01*
X245110Y86359D01*
X245045Y86348D01*
X244979Y86346D01*
X244936Y86328D01*
X244889Y86320D01*
X244832Y86286D01*
X244772Y86261D01*
X244737Y86230D01*
X244696Y86205D01*
X244655Y86154D01*
X244606Y86110D01*
X244584Y86068D01*
X244555Y86031D01*
X244534Y85969D01*
X244503Y85910D01*
X244495Y85856D01*
X244483Y85819D01*
X244483Y85815D01*
X244483Y85814D01*
X244484Y85779D01*
X244476Y85725D01*
X244476Y81915D01*
X244487Y81850D01*
X244489Y81784D01*
X244507Y81741D01*
X244515Y81694D01*
X244549Y81637D01*
X244574Y81577D01*
X244605Y81542D01*
X244630Y81501D01*
X244681Y81460D01*
X244725Y81411D01*
X244767Y81389D01*
X244804Y81360D01*
X244866Y81339D01*
X244925Y81308D01*
X244979Y81300D01*
X245016Y81288D01*
X245056Y81289D01*
X245110Y81281D01*
X247650Y81281D01*
X247715Y81292D01*
G37*
G36*
X481395Y81292D02*
X481395Y81292D01*
X481461Y81294D01*
X481504Y81312D01*
X481551Y81320D01*
X481608Y81354D01*
X481668Y81379D01*
X481703Y81410D01*
X481744Y81435D01*
X481786Y81486D01*
X481834Y81530D01*
X481856Y81572D01*
X481885Y81609D01*
X481906Y81671D01*
X481937Y81730D01*
X481945Y81784D01*
X481957Y81821D01*
X481956Y81861D01*
X481964Y81915D01*
X481964Y85725D01*
X481953Y85790D01*
X481951Y85856D01*
X481933Y85899D01*
X481925Y85946D01*
X481891Y86003D01*
X481866Y86063D01*
X481835Y86098D01*
X481810Y86139D01*
X481759Y86181D01*
X481715Y86229D01*
X481673Y86251D01*
X481636Y86280D01*
X481574Y86301D01*
X481515Y86332D01*
X481461Y86340D01*
X481424Y86352D01*
X481384Y86351D01*
X481330Y86359D01*
X478790Y86359D01*
X478725Y86348D01*
X478659Y86346D01*
X478616Y86328D01*
X478569Y86320D01*
X478512Y86286D01*
X478452Y86261D01*
X478417Y86230D01*
X478376Y86205D01*
X478335Y86154D01*
X478286Y86110D01*
X478264Y86068D01*
X478235Y86031D01*
X478214Y85969D01*
X478183Y85910D01*
X478175Y85856D01*
X478163Y85819D01*
X478163Y85815D01*
X478163Y85814D01*
X478164Y85779D01*
X478156Y85725D01*
X478156Y81915D01*
X478167Y81850D01*
X478169Y81784D01*
X478187Y81741D01*
X478195Y81694D01*
X478229Y81637D01*
X478254Y81577D01*
X478285Y81542D01*
X478310Y81501D01*
X478361Y81460D01*
X478405Y81411D01*
X478447Y81389D01*
X478484Y81360D01*
X478546Y81339D01*
X478605Y81308D01*
X478659Y81300D01*
X478696Y81288D01*
X478736Y81289D01*
X478790Y81281D01*
X481330Y81281D01*
X481395Y81292D01*
G37*
G36*
X450915Y60972D02*
X450915Y60972D01*
X450981Y60974D01*
X451024Y60992D01*
X451071Y61000D01*
X451128Y61034D01*
X451188Y61059D01*
X451223Y61090D01*
X451264Y61115D01*
X451306Y61166D01*
X451354Y61210D01*
X451376Y61252D01*
X451405Y61289D01*
X451426Y61351D01*
X451457Y61410D01*
X451465Y61464D01*
X451477Y61501D01*
X451476Y61541D01*
X451484Y61595D01*
X451484Y65405D01*
X451473Y65470D01*
X451471Y65536D01*
X451453Y65579D01*
X451445Y65626D01*
X451411Y65683D01*
X451386Y65743D01*
X451355Y65778D01*
X451330Y65819D01*
X451279Y65861D01*
X451235Y65909D01*
X451193Y65931D01*
X451156Y65960D01*
X451094Y65981D01*
X451035Y66012D01*
X450981Y66020D01*
X450944Y66032D01*
X450904Y66031D01*
X450850Y66039D01*
X448310Y66039D01*
X448245Y66028D01*
X448179Y66026D01*
X448136Y66008D01*
X448089Y66000D01*
X448032Y65966D01*
X447972Y65941D01*
X447937Y65910D01*
X447896Y65885D01*
X447855Y65834D01*
X447806Y65790D01*
X447784Y65748D01*
X447755Y65711D01*
X447734Y65649D01*
X447703Y65590D01*
X447695Y65536D01*
X447683Y65499D01*
X447683Y65495D01*
X447683Y65494D01*
X447684Y65459D01*
X447676Y65405D01*
X447676Y61595D01*
X447687Y61530D01*
X447689Y61464D01*
X447707Y61421D01*
X447715Y61374D01*
X447749Y61317D01*
X447774Y61257D01*
X447805Y61222D01*
X447830Y61181D01*
X447881Y61140D01*
X447925Y61091D01*
X447967Y61069D01*
X448004Y61040D01*
X448066Y61019D01*
X448125Y60988D01*
X448179Y60980D01*
X448216Y60968D01*
X448256Y60969D01*
X448310Y60961D01*
X450850Y60961D01*
X450915Y60972D01*
G37*
G36*
X217235Y60972D02*
X217235Y60972D01*
X217301Y60974D01*
X217344Y60992D01*
X217391Y61000D01*
X217448Y61034D01*
X217508Y61059D01*
X217543Y61090D01*
X217584Y61115D01*
X217626Y61166D01*
X217674Y61210D01*
X217696Y61252D01*
X217725Y61289D01*
X217746Y61351D01*
X217777Y61410D01*
X217785Y61464D01*
X217797Y61501D01*
X217796Y61541D01*
X217804Y61595D01*
X217804Y65405D01*
X217793Y65470D01*
X217791Y65536D01*
X217773Y65579D01*
X217765Y65626D01*
X217731Y65683D01*
X217706Y65743D01*
X217675Y65778D01*
X217650Y65819D01*
X217599Y65861D01*
X217555Y65909D01*
X217513Y65931D01*
X217476Y65960D01*
X217414Y65981D01*
X217355Y66012D01*
X217301Y66020D01*
X217264Y66032D01*
X217224Y66031D01*
X217170Y66039D01*
X214630Y66039D01*
X214565Y66028D01*
X214499Y66026D01*
X214456Y66008D01*
X214409Y66000D01*
X214352Y65966D01*
X214292Y65941D01*
X214257Y65910D01*
X214216Y65885D01*
X214175Y65834D01*
X214126Y65790D01*
X214104Y65748D01*
X214075Y65711D01*
X214054Y65649D01*
X214023Y65590D01*
X214015Y65536D01*
X214003Y65499D01*
X214003Y65495D01*
X214003Y65494D01*
X214004Y65459D01*
X213996Y65405D01*
X213996Y61595D01*
X214007Y61530D01*
X214009Y61464D01*
X214027Y61421D01*
X214035Y61374D01*
X214069Y61317D01*
X214094Y61257D01*
X214125Y61222D01*
X214150Y61181D01*
X214201Y61140D01*
X214245Y61091D01*
X214287Y61069D01*
X214324Y61040D01*
X214386Y61019D01*
X214445Y60988D01*
X214499Y60980D01*
X214536Y60968D01*
X214576Y60969D01*
X214630Y60961D01*
X217170Y60961D01*
X217235Y60972D01*
G37*
G36*
X684595Y60972D02*
X684595Y60972D01*
X684661Y60974D01*
X684704Y60992D01*
X684751Y61000D01*
X684808Y61034D01*
X684868Y61059D01*
X684903Y61090D01*
X684944Y61115D01*
X684986Y61166D01*
X685034Y61210D01*
X685056Y61252D01*
X685085Y61289D01*
X685106Y61351D01*
X685137Y61410D01*
X685145Y61464D01*
X685157Y61501D01*
X685156Y61541D01*
X685164Y61595D01*
X685164Y65405D01*
X685153Y65470D01*
X685151Y65536D01*
X685133Y65579D01*
X685125Y65626D01*
X685091Y65683D01*
X685066Y65743D01*
X685035Y65778D01*
X685010Y65819D01*
X684959Y65861D01*
X684915Y65909D01*
X684873Y65931D01*
X684836Y65960D01*
X684774Y65981D01*
X684715Y66012D01*
X684661Y66020D01*
X684624Y66032D01*
X684584Y66031D01*
X684530Y66039D01*
X681990Y66039D01*
X681925Y66028D01*
X681859Y66026D01*
X681816Y66008D01*
X681769Y66000D01*
X681712Y65966D01*
X681652Y65941D01*
X681617Y65910D01*
X681576Y65885D01*
X681535Y65834D01*
X681486Y65790D01*
X681464Y65748D01*
X681435Y65711D01*
X681414Y65649D01*
X681383Y65590D01*
X681375Y65536D01*
X681363Y65499D01*
X681363Y65495D01*
X681363Y65494D01*
X681364Y65459D01*
X681356Y65405D01*
X681356Y61595D01*
X681367Y61530D01*
X681369Y61464D01*
X681387Y61421D01*
X681395Y61374D01*
X681429Y61317D01*
X681454Y61257D01*
X681485Y61222D01*
X681510Y61181D01*
X681561Y61140D01*
X681605Y61091D01*
X681647Y61069D01*
X681684Y61040D01*
X681746Y61019D01*
X681805Y60988D01*
X681859Y60980D01*
X681896Y60968D01*
X681936Y60969D01*
X681990Y60961D01*
X684530Y60961D01*
X684595Y60972D01*
G37*
G36*
X602680Y188607D02*
X602680Y188607D01*
X602746Y188609D01*
X602789Y188627D01*
X602836Y188635D01*
X602893Y188669D01*
X602953Y188694D01*
X602988Y188725D01*
X603029Y188750D01*
X603071Y188801D01*
X603119Y188845D01*
X603141Y188887D01*
X603170Y188924D01*
X603191Y188986D01*
X603222Y189045D01*
X603230Y189099D01*
X603242Y189136D01*
X603241Y189176D01*
X603249Y189230D01*
X603249Y191770D01*
X603238Y191835D01*
X603236Y191901D01*
X603218Y191944D01*
X603210Y191991D01*
X603176Y192048D01*
X603151Y192108D01*
X603120Y192143D01*
X603095Y192184D01*
X603044Y192226D01*
X603000Y192274D01*
X602958Y192296D01*
X602921Y192325D01*
X602859Y192346D01*
X602800Y192377D01*
X602746Y192385D01*
X602709Y192397D01*
X602669Y192396D01*
X602615Y192404D01*
X598805Y192404D01*
X598740Y192393D01*
X598674Y192391D01*
X598631Y192373D01*
X598584Y192365D01*
X598527Y192331D01*
X598467Y192306D01*
X598432Y192275D01*
X598391Y192250D01*
X598350Y192199D01*
X598301Y192155D01*
X598279Y192113D01*
X598250Y192076D01*
X598229Y192014D01*
X598198Y191955D01*
X598190Y191901D01*
X598178Y191864D01*
X598178Y191861D01*
X598179Y191824D01*
X598171Y191770D01*
X598171Y189230D01*
X598182Y189165D01*
X598184Y189099D01*
X598202Y189056D01*
X598210Y189009D01*
X598244Y188952D01*
X598269Y188892D01*
X598300Y188857D01*
X598325Y188816D01*
X598376Y188775D01*
X598420Y188726D01*
X598462Y188704D01*
X598499Y188675D01*
X598561Y188654D01*
X598620Y188623D01*
X598674Y188615D01*
X598711Y188603D01*
X598751Y188604D01*
X598805Y188596D01*
X602615Y188596D01*
X602680Y188607D01*
G37*
G36*
X135320Y188607D02*
X135320Y188607D01*
X135386Y188609D01*
X135429Y188627D01*
X135476Y188635D01*
X135533Y188669D01*
X135593Y188694D01*
X135628Y188725D01*
X135669Y188750D01*
X135711Y188801D01*
X135759Y188845D01*
X135781Y188887D01*
X135810Y188924D01*
X135831Y188986D01*
X135862Y189045D01*
X135870Y189099D01*
X135882Y189136D01*
X135881Y189176D01*
X135889Y189230D01*
X135889Y191770D01*
X135878Y191835D01*
X135876Y191901D01*
X135858Y191944D01*
X135850Y191991D01*
X135816Y192048D01*
X135791Y192108D01*
X135760Y192143D01*
X135735Y192184D01*
X135684Y192226D01*
X135640Y192274D01*
X135598Y192296D01*
X135561Y192325D01*
X135499Y192346D01*
X135440Y192377D01*
X135386Y192385D01*
X135349Y192397D01*
X135309Y192396D01*
X135255Y192404D01*
X131445Y192404D01*
X131380Y192393D01*
X131314Y192391D01*
X131271Y192373D01*
X131224Y192365D01*
X131167Y192331D01*
X131107Y192306D01*
X131072Y192275D01*
X131031Y192250D01*
X130990Y192199D01*
X130941Y192155D01*
X130919Y192113D01*
X130890Y192076D01*
X130869Y192014D01*
X130838Y191955D01*
X130830Y191901D01*
X130818Y191864D01*
X130818Y191861D01*
X130819Y191824D01*
X130811Y191770D01*
X130811Y189230D01*
X130822Y189165D01*
X130824Y189099D01*
X130842Y189056D01*
X130850Y189009D01*
X130884Y188952D01*
X130909Y188892D01*
X130940Y188857D01*
X130965Y188816D01*
X131016Y188775D01*
X131060Y188726D01*
X131102Y188704D01*
X131139Y188675D01*
X131201Y188654D01*
X131260Y188623D01*
X131314Y188615D01*
X131351Y188603D01*
X131391Y188604D01*
X131445Y188596D01*
X135255Y188596D01*
X135320Y188607D01*
G37*
G36*
X369000Y188607D02*
X369000Y188607D01*
X369066Y188609D01*
X369109Y188627D01*
X369156Y188635D01*
X369213Y188669D01*
X369273Y188694D01*
X369308Y188725D01*
X369349Y188750D01*
X369391Y188801D01*
X369439Y188845D01*
X369461Y188887D01*
X369490Y188924D01*
X369511Y188986D01*
X369542Y189045D01*
X369550Y189099D01*
X369562Y189136D01*
X369561Y189176D01*
X369569Y189230D01*
X369569Y191770D01*
X369558Y191835D01*
X369556Y191901D01*
X369538Y191944D01*
X369530Y191991D01*
X369496Y192048D01*
X369471Y192108D01*
X369440Y192143D01*
X369415Y192184D01*
X369364Y192226D01*
X369320Y192274D01*
X369278Y192296D01*
X369241Y192325D01*
X369179Y192346D01*
X369120Y192377D01*
X369066Y192385D01*
X369029Y192397D01*
X368989Y192396D01*
X368935Y192404D01*
X365125Y192404D01*
X365060Y192393D01*
X364994Y192391D01*
X364951Y192373D01*
X364904Y192365D01*
X364847Y192331D01*
X364787Y192306D01*
X364752Y192275D01*
X364711Y192250D01*
X364670Y192199D01*
X364621Y192155D01*
X364599Y192113D01*
X364570Y192076D01*
X364549Y192014D01*
X364518Y191955D01*
X364510Y191901D01*
X364498Y191864D01*
X364498Y191861D01*
X364499Y191824D01*
X364491Y191770D01*
X364491Y189230D01*
X364502Y189165D01*
X364504Y189099D01*
X364522Y189056D01*
X364530Y189009D01*
X364564Y188952D01*
X364589Y188892D01*
X364620Y188857D01*
X364645Y188816D01*
X364696Y188775D01*
X364740Y188726D01*
X364782Y188704D01*
X364819Y188675D01*
X364881Y188654D01*
X364940Y188623D01*
X364994Y188615D01*
X365031Y188603D01*
X365071Y188604D01*
X365125Y188596D01*
X368935Y188596D01*
X369000Y188607D01*
G37*
G36*
X583630Y10807D02*
X583630Y10807D01*
X583696Y10809D01*
X583739Y10827D01*
X583786Y10835D01*
X583843Y10869D01*
X583903Y10894D01*
X583938Y10925D01*
X583979Y10950D01*
X584021Y11001D01*
X584069Y11045D01*
X584091Y11087D01*
X584120Y11124D01*
X584141Y11186D01*
X584172Y11245D01*
X584180Y11299D01*
X584192Y11336D01*
X584191Y11376D01*
X584199Y11430D01*
X584199Y13970D01*
X584188Y14035D01*
X584186Y14101D01*
X584168Y14144D01*
X584160Y14191D01*
X584126Y14248D01*
X584101Y14308D01*
X584070Y14343D01*
X584045Y14384D01*
X583994Y14426D01*
X583950Y14474D01*
X583908Y14496D01*
X583871Y14525D01*
X583809Y14546D01*
X583750Y14577D01*
X583696Y14585D01*
X583659Y14597D01*
X583619Y14596D01*
X583565Y14604D01*
X579755Y14604D01*
X579690Y14593D01*
X579624Y14591D01*
X579581Y14573D01*
X579534Y14565D01*
X579477Y14531D01*
X579417Y14506D01*
X579382Y14475D01*
X579341Y14450D01*
X579300Y14399D01*
X579251Y14355D01*
X579229Y14313D01*
X579200Y14276D01*
X579179Y14214D01*
X579148Y14155D01*
X579140Y14101D01*
X579128Y14064D01*
X579128Y14061D01*
X579129Y14024D01*
X579121Y13970D01*
X579121Y11430D01*
X579132Y11365D01*
X579134Y11299D01*
X579152Y11256D01*
X579160Y11209D01*
X579194Y11152D01*
X579219Y11092D01*
X579250Y11057D01*
X579275Y11016D01*
X579326Y10975D01*
X579370Y10926D01*
X579412Y10904D01*
X579449Y10875D01*
X579511Y10854D01*
X579570Y10823D01*
X579624Y10815D01*
X579661Y10803D01*
X579701Y10804D01*
X579755Y10796D01*
X583565Y10796D01*
X583630Y10807D01*
G37*
G36*
X349950Y10807D02*
X349950Y10807D01*
X350016Y10809D01*
X350059Y10827D01*
X350106Y10835D01*
X350163Y10869D01*
X350223Y10894D01*
X350258Y10925D01*
X350299Y10950D01*
X350341Y11001D01*
X350389Y11045D01*
X350411Y11087D01*
X350440Y11124D01*
X350461Y11186D01*
X350492Y11245D01*
X350500Y11299D01*
X350512Y11336D01*
X350511Y11376D01*
X350519Y11430D01*
X350519Y13970D01*
X350508Y14035D01*
X350506Y14101D01*
X350488Y14144D01*
X350480Y14191D01*
X350446Y14248D01*
X350421Y14308D01*
X350390Y14343D01*
X350365Y14384D01*
X350314Y14426D01*
X350270Y14474D01*
X350228Y14496D01*
X350191Y14525D01*
X350129Y14546D01*
X350070Y14577D01*
X350016Y14585D01*
X349979Y14597D01*
X349939Y14596D01*
X349885Y14604D01*
X346075Y14604D01*
X346010Y14593D01*
X345944Y14591D01*
X345901Y14573D01*
X345854Y14565D01*
X345797Y14531D01*
X345737Y14506D01*
X345702Y14475D01*
X345661Y14450D01*
X345620Y14399D01*
X345571Y14355D01*
X345549Y14313D01*
X345520Y14276D01*
X345499Y14214D01*
X345468Y14155D01*
X345460Y14101D01*
X345448Y14064D01*
X345448Y14061D01*
X345449Y14024D01*
X345441Y13970D01*
X345441Y11430D01*
X345452Y11365D01*
X345454Y11299D01*
X345472Y11256D01*
X345480Y11209D01*
X345514Y11152D01*
X345539Y11092D01*
X345570Y11057D01*
X345595Y11016D01*
X345646Y10975D01*
X345690Y10926D01*
X345732Y10904D01*
X345769Y10875D01*
X345831Y10854D01*
X345890Y10823D01*
X345944Y10815D01*
X345981Y10803D01*
X346021Y10804D01*
X346075Y10796D01*
X349885Y10796D01*
X349950Y10807D01*
G37*
G36*
X116270Y10807D02*
X116270Y10807D01*
X116336Y10809D01*
X116379Y10827D01*
X116426Y10835D01*
X116483Y10869D01*
X116543Y10894D01*
X116578Y10925D01*
X116619Y10950D01*
X116661Y11001D01*
X116709Y11045D01*
X116731Y11087D01*
X116760Y11124D01*
X116781Y11186D01*
X116812Y11245D01*
X116820Y11299D01*
X116832Y11336D01*
X116831Y11376D01*
X116839Y11430D01*
X116839Y13970D01*
X116828Y14035D01*
X116826Y14101D01*
X116808Y14144D01*
X116800Y14191D01*
X116766Y14248D01*
X116741Y14308D01*
X116710Y14343D01*
X116685Y14384D01*
X116634Y14426D01*
X116590Y14474D01*
X116548Y14496D01*
X116511Y14525D01*
X116449Y14546D01*
X116390Y14577D01*
X116336Y14585D01*
X116299Y14597D01*
X116259Y14596D01*
X116205Y14604D01*
X112395Y14604D01*
X112330Y14593D01*
X112264Y14591D01*
X112221Y14573D01*
X112174Y14565D01*
X112117Y14531D01*
X112057Y14506D01*
X112022Y14475D01*
X111981Y14450D01*
X111940Y14399D01*
X111891Y14355D01*
X111869Y14313D01*
X111840Y14276D01*
X111819Y14214D01*
X111788Y14155D01*
X111780Y14101D01*
X111768Y14064D01*
X111768Y14061D01*
X111769Y14024D01*
X111761Y13970D01*
X111761Y11430D01*
X111772Y11365D01*
X111774Y11299D01*
X111792Y11256D01*
X111800Y11209D01*
X111834Y11152D01*
X111859Y11092D01*
X111890Y11057D01*
X111915Y11016D01*
X111966Y10975D01*
X112010Y10926D01*
X112052Y10904D01*
X112089Y10875D01*
X112151Y10854D01*
X112210Y10823D01*
X112264Y10815D01*
X112301Y10803D01*
X112341Y10804D01*
X112395Y10796D01*
X116205Y10796D01*
X116270Y10807D01*
G37*
D10*
X215900Y520700D03*
X215900Y495300D03*
X215900Y469900D03*
X215900Y444500D03*
X215900Y419100D03*
X215900Y393700D03*
X215900Y368300D03*
X215900Y342900D03*
X215900Y317500D03*
X215900Y292100D03*
X215900Y266700D03*
X215900Y241300D03*
X215900Y215900D03*
X215900Y190500D03*
X215900Y165100D03*
X215900Y139700D03*
X12700Y241300D03*
X12700Y266700D03*
X12700Y292100D03*
X12700Y317500D03*
X12700Y342900D03*
X12700Y368300D03*
X12700Y393700D03*
X12700Y419100D03*
X12700Y444500D03*
X12700Y469900D03*
X12700Y495300D03*
X12700Y520700D03*
D11*
X85400Y49050D03*
X143200Y49050D03*
D12*
X203200Y25400D03*
X25400Y25400D03*
X25400Y558800D03*
X203200Y558800D03*
D13*
X122303Y18544D02*
X116711Y18544D01*
X122303Y18544D02*
X122303Y6856D01*
X116711Y6856D01*
X116711Y18544D01*
X116711Y9025D02*
X122303Y9025D01*
X122303Y11194D02*
X116711Y11194D01*
X116711Y13363D02*
X122303Y13363D01*
X122303Y15532D02*
X116711Y15532D01*
X116711Y17701D02*
X122303Y17701D01*
X111889Y18544D02*
X106297Y18544D01*
X111889Y18544D02*
X111889Y6856D01*
X106297Y6856D01*
X106297Y18544D01*
X106297Y9025D02*
X111889Y9025D01*
X111889Y11194D02*
X106297Y11194D01*
X106297Y13363D02*
X111889Y13363D01*
X111889Y15532D02*
X106297Y15532D01*
X106297Y17701D02*
X111889Y17701D01*
D14*
X34258Y68772D02*
X34258Y73788D01*
X34258Y68772D02*
X29242Y68772D01*
X29242Y73788D01*
X34258Y73788D01*
X34258Y70913D02*
X29242Y70913D01*
X29242Y73054D02*
X34258Y73054D01*
X34258Y78772D02*
X34258Y83788D01*
X34258Y78772D02*
X29242Y78772D01*
X29242Y83788D01*
X34258Y83788D01*
X34258Y80913D02*
X29242Y80913D01*
X29242Y83054D02*
X34258Y83054D01*
X29242Y104012D02*
X29242Y109028D01*
X34258Y109028D01*
X34258Y104012D01*
X29242Y104012D01*
X29242Y106153D02*
X34258Y106153D01*
X34258Y108294D02*
X29242Y108294D01*
X29242Y99028D02*
X29242Y94012D01*
X29242Y99028D02*
X34258Y99028D01*
X34258Y94012D01*
X29242Y94012D01*
X29242Y96153D02*
X34258Y96153D01*
X34258Y98294D02*
X29242Y98294D01*
D13*
X6856Y96518D02*
X6856Y102110D01*
X18544Y102110D01*
X18544Y96518D01*
X6856Y96518D01*
X6856Y98687D02*
X18544Y98687D01*
X18544Y100856D02*
X6856Y100856D01*
X6856Y91696D02*
X6856Y86104D01*
X6856Y91696D02*
X18544Y91696D01*
X18544Y86104D01*
X6856Y86104D01*
X6856Y88273D02*
X18544Y88273D01*
X18544Y90442D02*
X6856Y90442D01*
X6856Y81282D02*
X6856Y75690D01*
X6856Y81282D02*
X18544Y81282D01*
X18544Y75690D01*
X6856Y75690D01*
X6856Y77859D02*
X18544Y77859D01*
X18544Y80028D02*
X6856Y80028D01*
D15*
X125867Y153332D02*
X125867Y157868D01*
X125867Y153332D02*
X114831Y153332D01*
X114831Y157868D01*
X125867Y157868D01*
X125867Y155454D02*
X114831Y155454D01*
X114831Y157576D02*
X125867Y157576D01*
X125867Y162832D02*
X125867Y167368D01*
X125867Y162832D02*
X114831Y162832D01*
X114831Y167368D01*
X125867Y167368D01*
X125867Y164954D02*
X114831Y164954D01*
X114831Y167076D02*
X125867Y167076D01*
X125867Y172332D02*
X125867Y176868D01*
X125867Y172332D02*
X114831Y172332D01*
X114831Y176868D01*
X125867Y176868D01*
X125867Y174454D02*
X114831Y174454D01*
X114831Y176576D02*
X125867Y176576D01*
X151869Y176868D02*
X151869Y172332D01*
X140833Y172332D01*
X140833Y176868D01*
X151869Y176868D01*
X151869Y174454D02*
X140833Y174454D01*
X140833Y176576D02*
X151869Y176576D01*
X151869Y157868D02*
X151869Y153332D01*
X140833Y153332D01*
X140833Y157868D01*
X151869Y157868D01*
X151869Y155454D02*
X140833Y155454D01*
X140833Y157576D02*
X151869Y157576D01*
D14*
X110458Y157672D02*
X110458Y162688D01*
X110458Y157672D02*
X105442Y157672D01*
X105442Y162688D01*
X110458Y162688D01*
X110458Y159813D02*
X105442Y159813D01*
X105442Y161954D02*
X110458Y161954D01*
X110458Y167672D02*
X110458Y172688D01*
X110458Y167672D02*
X105442Y167672D01*
X105442Y172688D01*
X110458Y172688D01*
X110458Y169813D02*
X105442Y169813D01*
X105442Y171954D02*
X110458Y171954D01*
X161258Y162688D02*
X161258Y157672D01*
X156242Y157672D01*
X156242Y162688D01*
X161258Y162688D01*
X161258Y159813D02*
X156242Y159813D01*
X156242Y161954D02*
X161258Y161954D01*
X161258Y167672D02*
X161258Y172688D01*
X161258Y167672D02*
X156242Y167672D01*
X156242Y172688D01*
X161258Y172688D01*
X161258Y169813D02*
X156242Y169813D01*
X156242Y171954D02*
X161258Y171954D01*
X97758Y162688D02*
X97758Y157672D01*
X92742Y157672D01*
X92742Y162688D01*
X97758Y162688D01*
X97758Y159813D02*
X92742Y159813D01*
X92742Y161954D02*
X97758Y161954D01*
X97758Y167672D02*
X97758Y172688D01*
X97758Y167672D02*
X92742Y167672D01*
X92742Y172688D01*
X97758Y172688D01*
X97758Y169813D02*
X92742Y169813D01*
X92742Y171954D02*
X97758Y171954D01*
D16*
X77300Y172600D03*
X77300Y167600D03*
X77300Y162600D03*
X77300Y157600D03*
X62400Y157600D03*
X62400Y162600D03*
X62400Y167600D03*
X62400Y172600D03*
D14*
X62422Y181642D02*
X67438Y181642D01*
X62422Y181642D02*
X62422Y186658D01*
X67438Y186658D01*
X67438Y181642D01*
X67438Y183783D02*
X62422Y183783D01*
X62422Y185924D02*
X67438Y185924D01*
X72422Y181642D02*
X77438Y181642D01*
X72422Y181642D02*
X72422Y186658D01*
X77438Y186658D01*
X77438Y181642D01*
X77438Y183783D02*
X72422Y183783D01*
X72422Y185924D02*
X77438Y185924D01*
D17*
X145807Y245643D02*
X145807Y249657D01*
X145807Y245643D02*
X138293Y245643D01*
X138293Y249657D01*
X145807Y249657D01*
X145807Y247787D02*
X138293Y247787D01*
X145807Y236957D02*
X145807Y232943D01*
X138293Y232943D01*
X138293Y236957D01*
X145807Y236957D01*
X145807Y235087D02*
X138293Y235087D01*
X145807Y224257D02*
X145807Y220243D01*
X138293Y220243D01*
X138293Y224257D01*
X145807Y224257D01*
X145807Y222387D02*
X138293Y222387D01*
X145807Y211557D02*
X145807Y207543D01*
X138293Y207543D01*
X138293Y211557D01*
X145807Y211557D01*
X145807Y209687D02*
X138293Y209687D01*
X90307Y220243D02*
X90307Y224257D01*
X90307Y220243D02*
X82793Y220243D01*
X82793Y224257D01*
X90307Y224257D01*
X90307Y222387D02*
X82793Y222387D01*
X90307Y211557D02*
X90307Y207543D01*
X82793Y207543D01*
X82793Y211557D01*
X90307Y211557D01*
X90307Y209687D02*
X82793Y209687D01*
X90307Y232943D02*
X90307Y236957D01*
X90307Y232943D02*
X82793Y232943D01*
X82793Y236957D01*
X90307Y236957D01*
X90307Y235087D02*
X82793Y235087D01*
X90307Y245643D02*
X90307Y249657D01*
X90307Y245643D02*
X82793Y245643D01*
X82793Y249657D01*
X90307Y249657D01*
X90307Y247787D02*
X82793Y247787D01*
D14*
X150052Y251492D02*
X155068Y251492D01*
X150052Y251492D02*
X150052Y256508D01*
X155068Y256508D01*
X155068Y251492D01*
X155068Y253633D02*
X150052Y253633D01*
X150052Y255774D02*
X155068Y255774D01*
X160052Y251492D02*
X165068Y251492D01*
X160052Y251492D02*
X160052Y256508D01*
X165068Y256508D01*
X165068Y251492D01*
X165068Y253633D02*
X160052Y253633D01*
X160052Y255774D02*
X165068Y255774D01*
X155068Y226092D02*
X150052Y226092D01*
X150052Y231108D01*
X155068Y231108D01*
X155068Y226092D01*
X155068Y228233D02*
X150052Y228233D01*
X150052Y230374D02*
X155068Y230374D01*
X160052Y226092D02*
X165068Y226092D01*
X160052Y226092D02*
X160052Y231108D01*
X165068Y231108D01*
X165068Y226092D01*
X165068Y228233D02*
X160052Y228233D01*
X160052Y230374D02*
X165068Y230374D01*
D10*
X139700Y393700D03*
X114300Y393700D03*
X88900Y393700D03*
D15*
X30868Y172583D02*
X26332Y172583D01*
X26332Y183619D01*
X30868Y183619D01*
X30868Y172583D01*
X30868Y174705D02*
X26332Y174705D01*
X26332Y176827D02*
X30868Y176827D01*
X30868Y178949D02*
X26332Y178949D01*
X26332Y181071D02*
X30868Y181071D01*
X30868Y183193D02*
X26332Y183193D01*
X35832Y172583D02*
X40368Y172583D01*
X35832Y172583D02*
X35832Y183619D01*
X40368Y183619D01*
X40368Y172583D01*
X40368Y174705D02*
X35832Y174705D01*
X35832Y176827D02*
X40368Y176827D01*
X40368Y178949D02*
X35832Y178949D01*
X35832Y181071D02*
X40368Y181071D01*
X40368Y183193D02*
X35832Y183193D01*
X45332Y172583D02*
X49868Y172583D01*
X45332Y172583D02*
X45332Y183619D01*
X49868Y183619D01*
X49868Y172583D01*
X49868Y174705D02*
X45332Y174705D01*
X45332Y176827D02*
X49868Y176827D01*
X49868Y178949D02*
X45332Y178949D01*
X45332Y181071D02*
X49868Y181071D01*
X49868Y183193D02*
X45332Y183193D01*
X45332Y146581D02*
X49868Y146581D01*
X45332Y146581D02*
X45332Y157617D01*
X49868Y157617D01*
X49868Y146581D01*
X49868Y148703D02*
X45332Y148703D01*
X45332Y150825D02*
X49868Y150825D01*
X49868Y152947D02*
X45332Y152947D01*
X45332Y155069D02*
X49868Y155069D01*
X49868Y157191D02*
X45332Y157191D01*
X30868Y146581D02*
X26332Y146581D01*
X26332Y157617D01*
X30868Y157617D01*
X30868Y146581D01*
X30868Y148703D02*
X26332Y148703D01*
X26332Y150825D02*
X30868Y150825D01*
X30868Y152947D02*
X26332Y152947D01*
X26332Y155069D02*
X30868Y155069D01*
X30868Y157191D02*
X26332Y157191D01*
D14*
X48292Y140858D02*
X48292Y135842D01*
X48292Y140858D02*
X53308Y140858D01*
X53308Y135842D01*
X48292Y135842D01*
X48292Y137983D02*
X53308Y137983D01*
X53308Y140124D02*
X48292Y140124D01*
X48292Y130858D02*
X48292Y125842D01*
X48292Y130858D02*
X53308Y130858D01*
X53308Y125842D01*
X48292Y125842D01*
X48292Y127983D02*
X53308Y127983D01*
X53308Y130124D02*
X48292Y130124D01*
X45608Y199358D02*
X40592Y199358D01*
X45608Y199358D02*
X45608Y194342D01*
X40592Y194342D01*
X40592Y199358D01*
X40592Y196483D02*
X45608Y196483D01*
X45608Y198624D02*
X40592Y198624D01*
X35608Y199358D02*
X30592Y199358D01*
X35608Y199358D02*
X35608Y194342D01*
X30592Y194342D01*
X30592Y199358D01*
X30592Y196483D02*
X35608Y196483D01*
X35608Y198624D02*
X30592Y198624D01*
X72342Y237458D02*
X77358Y237458D01*
X77358Y232442D01*
X72342Y232442D01*
X72342Y237458D01*
X72342Y234583D02*
X77358Y234583D01*
X77358Y236724D02*
X72342Y236724D01*
X67358Y237458D02*
X62342Y237458D01*
X67358Y237458D02*
X67358Y232442D01*
X62342Y232442D01*
X62342Y237458D01*
X62342Y234583D02*
X67358Y234583D01*
X67358Y236724D02*
X62342Y236724D01*
X72342Y250158D02*
X77358Y250158D01*
X77358Y245142D01*
X72342Y245142D01*
X72342Y250158D01*
X72342Y247283D02*
X77358Y247283D01*
X77358Y249424D02*
X72342Y249424D01*
X67358Y250158D02*
X62342Y250158D01*
X67358Y250158D02*
X67358Y245142D01*
X62342Y245142D01*
X62342Y250158D01*
X62342Y247283D02*
X67358Y247283D01*
X67358Y249424D02*
X62342Y249424D01*
D13*
X210056Y71503D02*
X210056Y65911D01*
X210056Y71503D02*
X221744Y71503D01*
X221744Y65911D01*
X210056Y65911D01*
X210056Y68080D02*
X221744Y68080D01*
X221744Y70249D02*
X210056Y70249D01*
X210056Y61089D02*
X210056Y55497D01*
X210056Y61089D02*
X221744Y61089D01*
X221744Y55497D01*
X210056Y55497D01*
X210056Y57666D02*
X221744Y57666D01*
X221744Y59835D02*
X210056Y59835D01*
D14*
X40608Y125842D02*
X40608Y130858D01*
X40608Y125842D02*
X35592Y125842D01*
X35592Y130858D01*
X40608Y130858D01*
X40608Y127983D02*
X35592Y127983D01*
X35592Y130124D02*
X40608Y130124D01*
X40608Y135842D02*
X40608Y140858D01*
X40608Y135842D02*
X35592Y135842D01*
X35592Y140858D01*
X40608Y140858D01*
X40608Y137983D02*
X35592Y137983D01*
X35592Y140124D02*
X40608Y140124D01*
X27908Y130858D02*
X27908Y125842D01*
X22892Y125842D01*
X22892Y130858D01*
X27908Y130858D01*
X27908Y127983D02*
X22892Y127983D01*
X22892Y130124D02*
X27908Y130124D01*
X27908Y135842D02*
X27908Y140858D01*
X27908Y135842D02*
X22892Y135842D01*
X22892Y140858D01*
X27908Y140858D01*
X27908Y137983D02*
X22892Y137983D01*
X22892Y140124D02*
X27908Y140124D01*
D18*
X145609Y478159D02*
X149191Y478159D01*
X145609Y478159D02*
X145609Y483641D01*
X149191Y483641D01*
X149191Y478159D01*
X149191Y480334D02*
X145609Y480334D01*
X145609Y482509D02*
X149191Y482509D01*
X155609Y478159D02*
X159191Y478159D01*
X155609Y478159D02*
X155609Y483641D01*
X159191Y483641D01*
X159191Y478159D01*
X159191Y480334D02*
X155609Y480334D01*
X155609Y482509D02*
X159191Y482509D01*
X154191Y466659D02*
X150609Y466659D01*
X150609Y472141D01*
X154191Y472141D01*
X154191Y466659D01*
X154191Y468834D02*
X150609Y468834D01*
X150609Y471009D02*
X154191Y471009D01*
D14*
X154908Y448358D02*
X154908Y443342D01*
X149892Y443342D01*
X149892Y448358D01*
X154908Y448358D01*
X154908Y445483D02*
X149892Y445483D01*
X149892Y447624D02*
X154908Y447624D01*
X154908Y453342D02*
X154908Y458358D01*
X154908Y453342D02*
X149892Y453342D01*
X149892Y458358D01*
X154908Y458358D01*
X154908Y455483D02*
X149892Y455483D01*
X149892Y457624D02*
X154908Y457624D01*
D17*
X84157Y76517D02*
X80143Y76517D01*
X84157Y76517D02*
X84157Y67503D01*
X80143Y67503D01*
X80143Y76517D01*
X80143Y69647D02*
X84157Y69647D01*
X84157Y71791D02*
X80143Y71791D01*
X80143Y73935D02*
X84157Y73935D01*
X84157Y76079D02*
X80143Y76079D01*
X91143Y76517D02*
X95157Y76517D01*
X95157Y67503D01*
X91143Y67503D01*
X91143Y76517D01*
X91143Y69647D02*
X95157Y69647D01*
X95157Y71791D02*
X91143Y71791D01*
X91143Y73935D02*
X95157Y73935D01*
X95157Y76079D02*
X91143Y76079D01*
X102143Y76517D02*
X106157Y76517D01*
X106157Y67503D01*
X102143Y67503D01*
X102143Y76517D01*
X102143Y69647D02*
X106157Y69647D01*
X106157Y71791D02*
X102143Y71791D01*
X102143Y73935D02*
X106157Y73935D01*
X106157Y76079D02*
X102143Y76079D01*
X109643Y76517D02*
X113657Y76517D01*
X113657Y67503D01*
X109643Y67503D01*
X109643Y76517D01*
X109643Y69647D02*
X113657Y69647D01*
X113657Y71791D02*
X109643Y71791D01*
X109643Y73935D02*
X113657Y73935D01*
X113657Y76079D02*
X109643Y76079D01*
X124143Y76517D02*
X128157Y76517D01*
X128157Y67503D01*
X124143Y67503D01*
X124143Y76517D01*
X124143Y69647D02*
X128157Y69647D01*
X128157Y71791D02*
X124143Y71791D01*
X124143Y73935D02*
X128157Y73935D01*
X128157Y76079D02*
X124143Y76079D01*
X135143Y76517D02*
X139157Y76517D01*
X139157Y67503D01*
X135143Y67503D01*
X135143Y76517D01*
X135143Y69647D02*
X139157Y69647D01*
X139157Y71791D02*
X135143Y71791D01*
X135143Y73935D02*
X139157Y73935D01*
X139157Y76079D02*
X135143Y76079D01*
X146143Y76517D02*
X150157Y76517D01*
X150157Y67503D01*
X146143Y67503D01*
X146143Y76517D01*
X146143Y69647D02*
X150157Y69647D01*
X150157Y71791D02*
X146143Y71791D01*
X146143Y73935D02*
X150157Y73935D01*
X150157Y76079D02*
X146143Y76079D01*
X157143Y76517D02*
X161157Y76517D01*
X161157Y67503D01*
X157143Y67503D01*
X157143Y76517D01*
X157143Y69647D02*
X161157Y69647D01*
X161157Y71791D02*
X157143Y71791D01*
X157143Y73935D02*
X161157Y73935D01*
X161157Y76079D02*
X157143Y76079D01*
X120657Y76517D02*
X116643Y76517D01*
X120657Y76517D02*
X120657Y67503D01*
X116643Y67503D01*
X116643Y76517D01*
X116643Y69647D02*
X120657Y69647D01*
X120657Y71791D02*
X116643Y71791D01*
X116643Y73935D02*
X120657Y73935D01*
X120657Y76079D02*
X116643Y76079D01*
D19*
X73904Y95014D02*
X65396Y95014D01*
X73904Y95014D02*
X73904Y84006D01*
X65396Y84006D01*
X65396Y95014D01*
X65396Y86155D02*
X73904Y86155D01*
X73904Y88304D02*
X65396Y88304D01*
X65396Y90453D02*
X73904Y90453D01*
X73904Y92602D02*
X65396Y92602D01*
X65396Y94751D02*
X73904Y94751D01*
X73904Y139514D02*
X65396Y139514D01*
X73904Y139514D02*
X73904Y128506D01*
X65396Y128506D01*
X65396Y139514D01*
X65396Y130655D02*
X73904Y130655D01*
X73904Y132804D02*
X65396Y132804D01*
X65396Y134953D02*
X73904Y134953D01*
X73904Y137102D02*
X65396Y137102D01*
X65396Y139251D02*
X73904Y139251D01*
X167396Y139514D02*
X175904Y139514D01*
X175904Y128506D01*
X167396Y128506D01*
X167396Y139514D01*
X167396Y130655D02*
X175904Y130655D01*
X175904Y132804D02*
X167396Y132804D01*
X167396Y134953D02*
X175904Y134953D01*
X175904Y137102D02*
X167396Y137102D01*
X167396Y139251D02*
X175904Y139251D01*
X175904Y95014D02*
X167396Y95014D01*
X175904Y95014D02*
X175904Y84006D01*
X167396Y84006D01*
X167396Y95014D01*
X167396Y86155D02*
X175904Y86155D01*
X175904Y88304D02*
X167396Y88304D01*
X167396Y90453D02*
X175904Y90453D01*
X175904Y92602D02*
X167396Y92602D01*
X167396Y94751D02*
X175904Y94751D01*
D13*
X141353Y196344D02*
X135761Y196344D01*
X141353Y196344D02*
X141353Y184656D01*
X135761Y184656D01*
X135761Y196344D01*
X135761Y186825D02*
X141353Y186825D01*
X141353Y188994D02*
X135761Y188994D01*
X135761Y191163D02*
X141353Y191163D01*
X141353Y193332D02*
X135761Y193332D01*
X135761Y195501D02*
X141353Y195501D01*
X130939Y196344D02*
X125347Y196344D01*
X130939Y196344D02*
X130939Y184656D01*
X125347Y184656D01*
X125347Y196344D01*
X125347Y186825D02*
X130939Y186825D01*
X130939Y188994D02*
X125347Y188994D01*
X125347Y191163D02*
X130939Y191163D01*
X130939Y193332D02*
X125347Y193332D01*
X125347Y195501D02*
X130939Y195501D01*
D20*
X165100Y190500D03*
D21*
X222250Y539750D03*
X57150Y6350D03*
D10*
X449580Y520700D03*
X449580Y495300D03*
X449580Y469900D03*
X449580Y444500D03*
X449580Y419100D03*
X449580Y393700D03*
X449580Y368300D03*
X449580Y342900D03*
X449580Y317500D03*
X449580Y292100D03*
X449580Y266700D03*
X449580Y241300D03*
X449580Y215900D03*
X449580Y190500D03*
X449580Y165100D03*
X449580Y139700D03*
X246380Y241300D03*
X246380Y266700D03*
X246380Y292100D03*
X246380Y317500D03*
X246380Y342900D03*
X246380Y368300D03*
X246380Y393700D03*
X246380Y419100D03*
X246380Y444500D03*
X246380Y469900D03*
X246380Y495300D03*
X246380Y520700D03*
D11*
X319080Y49050D03*
X376880Y49050D03*
D12*
X436880Y25400D03*
X259080Y25400D03*
X259080Y558800D03*
X436880Y558800D03*
D13*
X355983Y18544D02*
X350391Y18544D01*
X355983Y18544D02*
X355983Y6856D01*
X350391Y6856D01*
X350391Y18544D01*
X350391Y9025D02*
X355983Y9025D01*
X355983Y11194D02*
X350391Y11194D01*
X350391Y13363D02*
X355983Y13363D01*
X355983Y15532D02*
X350391Y15532D01*
X350391Y17701D02*
X355983Y17701D01*
X345569Y18544D02*
X339977Y18544D01*
X345569Y18544D02*
X345569Y6856D01*
X339977Y6856D01*
X339977Y18544D01*
X339977Y9025D02*
X345569Y9025D01*
X345569Y11194D02*
X339977Y11194D01*
X339977Y13363D02*
X345569Y13363D01*
X345569Y15532D02*
X339977Y15532D01*
X339977Y17701D02*
X345569Y17701D01*
D14*
X267938Y68772D02*
X267938Y73788D01*
X267938Y68772D02*
X262922Y68772D01*
X262922Y73788D01*
X267938Y73788D01*
X267938Y70913D02*
X262922Y70913D01*
X262922Y73054D02*
X267938Y73054D01*
X267938Y78772D02*
X267938Y83788D01*
X267938Y78772D02*
X262922Y78772D01*
X262922Y83788D01*
X267938Y83788D01*
X267938Y80913D02*
X262922Y80913D01*
X262922Y83054D02*
X267938Y83054D01*
X262922Y104012D02*
X262922Y109028D01*
X267938Y109028D01*
X267938Y104012D01*
X262922Y104012D01*
X262922Y106153D02*
X267938Y106153D01*
X267938Y108294D02*
X262922Y108294D01*
X262922Y99028D02*
X262922Y94012D01*
X262922Y99028D02*
X267938Y99028D01*
X267938Y94012D01*
X262922Y94012D01*
X262922Y96153D02*
X267938Y96153D01*
X267938Y98294D02*
X262922Y98294D01*
D13*
X240536Y96518D02*
X240536Y102110D01*
X252224Y102110D01*
X252224Y96518D01*
X240536Y96518D01*
X240536Y98687D02*
X252224Y98687D01*
X252224Y100856D02*
X240536Y100856D01*
X240536Y91696D02*
X240536Y86104D01*
X240536Y91696D02*
X252224Y91696D01*
X252224Y86104D01*
X240536Y86104D01*
X240536Y88273D02*
X252224Y88273D01*
X252224Y90442D02*
X240536Y90442D01*
X240536Y81282D02*
X240536Y75690D01*
X240536Y81282D02*
X252224Y81282D01*
X252224Y75690D01*
X240536Y75690D01*
X240536Y77859D02*
X252224Y77859D01*
X252224Y80028D02*
X240536Y80028D01*
D15*
X359547Y153332D02*
X359547Y157868D01*
X359547Y153332D02*
X348511Y153332D01*
X348511Y157868D01*
X359547Y157868D01*
X359547Y155454D02*
X348511Y155454D01*
X348511Y157576D02*
X359547Y157576D01*
X359547Y162832D02*
X359547Y167368D01*
X359547Y162832D02*
X348511Y162832D01*
X348511Y167368D01*
X359547Y167368D01*
X359547Y164954D02*
X348511Y164954D01*
X348511Y167076D02*
X359547Y167076D01*
X359547Y172332D02*
X359547Y176868D01*
X359547Y172332D02*
X348511Y172332D01*
X348511Y176868D01*
X359547Y176868D01*
X359547Y174454D02*
X348511Y174454D01*
X348511Y176576D02*
X359547Y176576D01*
X385549Y176868D02*
X385549Y172332D01*
X374513Y172332D01*
X374513Y176868D01*
X385549Y176868D01*
X385549Y174454D02*
X374513Y174454D01*
X374513Y176576D02*
X385549Y176576D01*
X385549Y157868D02*
X385549Y153332D01*
X374513Y153332D01*
X374513Y157868D01*
X385549Y157868D01*
X385549Y155454D02*
X374513Y155454D01*
X374513Y157576D02*
X385549Y157576D01*
D14*
X344138Y157672D02*
X344138Y162688D01*
X344138Y157672D02*
X339122Y157672D01*
X339122Y162688D01*
X344138Y162688D01*
X344138Y159813D02*
X339122Y159813D01*
X339122Y161954D02*
X344138Y161954D01*
X344138Y167672D02*
X344138Y172688D01*
X344138Y167672D02*
X339122Y167672D01*
X339122Y172688D01*
X344138Y172688D01*
X344138Y169813D02*
X339122Y169813D01*
X339122Y171954D02*
X344138Y171954D01*
X394938Y162688D02*
X394938Y157672D01*
X389922Y157672D01*
X389922Y162688D01*
X394938Y162688D01*
X394938Y159813D02*
X389922Y159813D01*
X389922Y161954D02*
X394938Y161954D01*
X394938Y167672D02*
X394938Y172688D01*
X394938Y167672D02*
X389922Y167672D01*
X389922Y172688D01*
X394938Y172688D01*
X394938Y169813D02*
X389922Y169813D01*
X389922Y171954D02*
X394938Y171954D01*
X331438Y162688D02*
X331438Y157672D01*
X326422Y157672D01*
X326422Y162688D01*
X331438Y162688D01*
X331438Y159813D02*
X326422Y159813D01*
X326422Y161954D02*
X331438Y161954D01*
X331438Y167672D02*
X331438Y172688D01*
X331438Y167672D02*
X326422Y167672D01*
X326422Y172688D01*
X331438Y172688D01*
X331438Y169813D02*
X326422Y169813D01*
X326422Y171954D02*
X331438Y171954D01*
D16*
X310980Y172600D03*
X310980Y167600D03*
X310980Y162600D03*
X310980Y157600D03*
X296080Y157600D03*
X296080Y162600D03*
X296080Y167600D03*
X296080Y172600D03*
D14*
X296102Y181642D02*
X301118Y181642D01*
X296102Y181642D02*
X296102Y186658D01*
X301118Y186658D01*
X301118Y181642D01*
X301118Y183783D02*
X296102Y183783D01*
X296102Y185924D02*
X301118Y185924D01*
X306102Y181642D02*
X311118Y181642D01*
X306102Y181642D02*
X306102Y186658D01*
X311118Y186658D01*
X311118Y181642D01*
X311118Y183783D02*
X306102Y183783D01*
X306102Y185924D02*
X311118Y185924D01*
D17*
X379487Y245643D02*
X379487Y249657D01*
X379487Y245643D02*
X371973Y245643D01*
X371973Y249657D01*
X379487Y249657D01*
X379487Y247787D02*
X371973Y247787D01*
X379487Y236957D02*
X379487Y232943D01*
X371973Y232943D01*
X371973Y236957D01*
X379487Y236957D01*
X379487Y235087D02*
X371973Y235087D01*
X379487Y224257D02*
X379487Y220243D01*
X371973Y220243D01*
X371973Y224257D01*
X379487Y224257D01*
X379487Y222387D02*
X371973Y222387D01*
X379487Y211557D02*
X379487Y207543D01*
X371973Y207543D01*
X371973Y211557D01*
X379487Y211557D01*
X379487Y209687D02*
X371973Y209687D01*
X323987Y220243D02*
X323987Y224257D01*
X323987Y220243D02*
X316473Y220243D01*
X316473Y224257D01*
X323987Y224257D01*
X323987Y222387D02*
X316473Y222387D01*
X323987Y211557D02*
X323987Y207543D01*
X316473Y207543D01*
X316473Y211557D01*
X323987Y211557D01*
X323987Y209687D02*
X316473Y209687D01*
X323987Y232943D02*
X323987Y236957D01*
X323987Y232943D02*
X316473Y232943D01*
X316473Y236957D01*
X323987Y236957D01*
X323987Y235087D02*
X316473Y235087D01*
X323987Y245643D02*
X323987Y249657D01*
X323987Y245643D02*
X316473Y245643D01*
X316473Y249657D01*
X323987Y249657D01*
X323987Y247787D02*
X316473Y247787D01*
D14*
X383732Y251492D02*
X388748Y251492D01*
X383732Y251492D02*
X383732Y256508D01*
X388748Y256508D01*
X388748Y251492D01*
X388748Y253633D02*
X383732Y253633D01*
X383732Y255774D02*
X388748Y255774D01*
X393732Y251492D02*
X398748Y251492D01*
X393732Y251492D02*
X393732Y256508D01*
X398748Y256508D01*
X398748Y251492D01*
X398748Y253633D02*
X393732Y253633D01*
X393732Y255774D02*
X398748Y255774D01*
X388748Y226092D02*
X383732Y226092D01*
X383732Y231108D01*
X388748Y231108D01*
X388748Y226092D01*
X388748Y228233D02*
X383732Y228233D01*
X383732Y230374D02*
X388748Y230374D01*
X393732Y226092D02*
X398748Y226092D01*
X393732Y226092D02*
X393732Y231108D01*
X398748Y231108D01*
X398748Y226092D01*
X398748Y228233D02*
X393732Y228233D01*
X393732Y230374D02*
X398748Y230374D01*
D10*
X373380Y393700D03*
X347980Y393700D03*
X322580Y393700D03*
D15*
X264548Y172583D02*
X260012Y172583D01*
X260012Y183619D01*
X264548Y183619D01*
X264548Y172583D01*
X264548Y174705D02*
X260012Y174705D01*
X260012Y176827D02*
X264548Y176827D01*
X264548Y178949D02*
X260012Y178949D01*
X260012Y181071D02*
X264548Y181071D01*
X264548Y183193D02*
X260012Y183193D01*
X269512Y172583D02*
X274048Y172583D01*
X269512Y172583D02*
X269512Y183619D01*
X274048Y183619D01*
X274048Y172583D01*
X274048Y174705D02*
X269512Y174705D01*
X269512Y176827D02*
X274048Y176827D01*
X274048Y178949D02*
X269512Y178949D01*
X269512Y181071D02*
X274048Y181071D01*
X274048Y183193D02*
X269512Y183193D01*
X279012Y172583D02*
X283548Y172583D01*
X279012Y172583D02*
X279012Y183619D01*
X283548Y183619D01*
X283548Y172583D01*
X283548Y174705D02*
X279012Y174705D01*
X279012Y176827D02*
X283548Y176827D01*
X283548Y178949D02*
X279012Y178949D01*
X279012Y181071D02*
X283548Y181071D01*
X283548Y183193D02*
X279012Y183193D01*
X279012Y146581D02*
X283548Y146581D01*
X279012Y146581D02*
X279012Y157617D01*
X283548Y157617D01*
X283548Y146581D01*
X283548Y148703D02*
X279012Y148703D01*
X279012Y150825D02*
X283548Y150825D01*
X283548Y152947D02*
X279012Y152947D01*
X279012Y155069D02*
X283548Y155069D01*
X283548Y157191D02*
X279012Y157191D01*
X264548Y146581D02*
X260012Y146581D01*
X260012Y157617D01*
X264548Y157617D01*
X264548Y146581D01*
X264548Y148703D02*
X260012Y148703D01*
X260012Y150825D02*
X264548Y150825D01*
X264548Y152947D02*
X260012Y152947D01*
X260012Y155069D02*
X264548Y155069D01*
X264548Y157191D02*
X260012Y157191D01*
D14*
X281972Y140858D02*
X281972Y135842D01*
X281972Y140858D02*
X286988Y140858D01*
X286988Y135842D01*
X281972Y135842D01*
X281972Y137983D02*
X286988Y137983D01*
X286988Y140124D02*
X281972Y140124D01*
X281972Y130858D02*
X281972Y125842D01*
X281972Y130858D02*
X286988Y130858D01*
X286988Y125842D01*
X281972Y125842D01*
X281972Y127983D02*
X286988Y127983D01*
X286988Y130124D02*
X281972Y130124D01*
X279288Y199358D02*
X274272Y199358D01*
X279288Y199358D02*
X279288Y194342D01*
X274272Y194342D01*
X274272Y199358D01*
X274272Y196483D02*
X279288Y196483D01*
X279288Y198624D02*
X274272Y198624D01*
X269288Y199358D02*
X264272Y199358D01*
X269288Y199358D02*
X269288Y194342D01*
X264272Y194342D01*
X264272Y199358D01*
X264272Y196483D02*
X269288Y196483D01*
X269288Y198624D02*
X264272Y198624D01*
X306022Y237458D02*
X311038Y237458D01*
X311038Y232442D01*
X306022Y232442D01*
X306022Y237458D01*
X306022Y234583D02*
X311038Y234583D01*
X311038Y236724D02*
X306022Y236724D01*
X301038Y237458D02*
X296022Y237458D01*
X301038Y237458D02*
X301038Y232442D01*
X296022Y232442D01*
X296022Y237458D01*
X296022Y234583D02*
X301038Y234583D01*
X301038Y236724D02*
X296022Y236724D01*
X306022Y250158D02*
X311038Y250158D01*
X311038Y245142D01*
X306022Y245142D01*
X306022Y250158D01*
X306022Y247283D02*
X311038Y247283D01*
X311038Y249424D02*
X306022Y249424D01*
X301038Y250158D02*
X296022Y250158D01*
X301038Y250158D02*
X301038Y245142D01*
X296022Y245142D01*
X296022Y250158D01*
X296022Y247283D02*
X301038Y247283D01*
X301038Y249424D02*
X296022Y249424D01*
D13*
X443736Y71503D02*
X443736Y65911D01*
X443736Y71503D02*
X455424Y71503D01*
X455424Y65911D01*
X443736Y65911D01*
X443736Y68080D02*
X455424Y68080D01*
X455424Y70249D02*
X443736Y70249D01*
X443736Y61089D02*
X443736Y55497D01*
X443736Y61089D02*
X455424Y61089D01*
X455424Y55497D01*
X443736Y55497D01*
X443736Y57666D02*
X455424Y57666D01*
X455424Y59835D02*
X443736Y59835D01*
D14*
X274288Y125842D02*
X274288Y130858D01*
X274288Y125842D02*
X269272Y125842D01*
X269272Y130858D01*
X274288Y130858D01*
X274288Y127983D02*
X269272Y127983D01*
X269272Y130124D02*
X274288Y130124D01*
X274288Y135842D02*
X274288Y140858D01*
X274288Y135842D02*
X269272Y135842D01*
X269272Y140858D01*
X274288Y140858D01*
X274288Y137983D02*
X269272Y137983D01*
X269272Y140124D02*
X274288Y140124D01*
X261588Y130858D02*
X261588Y125842D01*
X256572Y125842D01*
X256572Y130858D01*
X261588Y130858D01*
X261588Y127983D02*
X256572Y127983D01*
X256572Y130124D02*
X261588Y130124D01*
X261588Y135842D02*
X261588Y140858D01*
X261588Y135842D02*
X256572Y135842D01*
X256572Y140858D01*
X261588Y140858D01*
X261588Y137983D02*
X256572Y137983D01*
X256572Y140124D02*
X261588Y140124D01*
D18*
X379289Y478159D02*
X382871Y478159D01*
X379289Y478159D02*
X379289Y483641D01*
X382871Y483641D01*
X382871Y478159D01*
X382871Y480334D02*
X379289Y480334D01*
X379289Y482509D02*
X382871Y482509D01*
X389289Y478159D02*
X392871Y478159D01*
X389289Y478159D02*
X389289Y483641D01*
X392871Y483641D01*
X392871Y478159D01*
X392871Y480334D02*
X389289Y480334D01*
X389289Y482509D02*
X392871Y482509D01*
X387871Y466659D02*
X384289Y466659D01*
X384289Y472141D01*
X387871Y472141D01*
X387871Y466659D01*
X387871Y468834D02*
X384289Y468834D01*
X384289Y471009D02*
X387871Y471009D01*
D14*
X388588Y448358D02*
X388588Y443342D01*
X383572Y443342D01*
X383572Y448358D01*
X388588Y448358D01*
X388588Y445483D02*
X383572Y445483D01*
X383572Y447624D02*
X388588Y447624D01*
X388588Y453342D02*
X388588Y458358D01*
X388588Y453342D02*
X383572Y453342D01*
X383572Y458358D01*
X388588Y458358D01*
X388588Y455483D02*
X383572Y455483D01*
X383572Y457624D02*
X388588Y457624D01*
D17*
X317837Y76517D02*
X313823Y76517D01*
X317837Y76517D02*
X317837Y67503D01*
X313823Y67503D01*
X313823Y76517D01*
X313823Y69647D02*
X317837Y69647D01*
X317837Y71791D02*
X313823Y71791D01*
X313823Y73935D02*
X317837Y73935D01*
X317837Y76079D02*
X313823Y76079D01*
X324823Y76517D02*
X328837Y76517D01*
X328837Y67503D01*
X324823Y67503D01*
X324823Y76517D01*
X324823Y69647D02*
X328837Y69647D01*
X328837Y71791D02*
X324823Y71791D01*
X324823Y73935D02*
X328837Y73935D01*
X328837Y76079D02*
X324823Y76079D01*
X335823Y76517D02*
X339837Y76517D01*
X339837Y67503D01*
X335823Y67503D01*
X335823Y76517D01*
X335823Y69647D02*
X339837Y69647D01*
X339837Y71791D02*
X335823Y71791D01*
X335823Y73935D02*
X339837Y73935D01*
X339837Y76079D02*
X335823Y76079D01*
X343323Y76517D02*
X347337Y76517D01*
X347337Y67503D01*
X343323Y67503D01*
X343323Y76517D01*
X343323Y69647D02*
X347337Y69647D01*
X347337Y71791D02*
X343323Y71791D01*
X343323Y73935D02*
X347337Y73935D01*
X347337Y76079D02*
X343323Y76079D01*
X357823Y76517D02*
X361837Y76517D01*
X361837Y67503D01*
X357823Y67503D01*
X357823Y76517D01*
X357823Y69647D02*
X361837Y69647D01*
X361837Y71791D02*
X357823Y71791D01*
X357823Y73935D02*
X361837Y73935D01*
X361837Y76079D02*
X357823Y76079D01*
X368823Y76517D02*
X372837Y76517D01*
X372837Y67503D01*
X368823Y67503D01*
X368823Y76517D01*
X368823Y69647D02*
X372837Y69647D01*
X372837Y71791D02*
X368823Y71791D01*
X368823Y73935D02*
X372837Y73935D01*
X372837Y76079D02*
X368823Y76079D01*
X379823Y76517D02*
X383837Y76517D01*
X383837Y67503D01*
X379823Y67503D01*
X379823Y76517D01*
X379823Y69647D02*
X383837Y69647D01*
X383837Y71791D02*
X379823Y71791D01*
X379823Y73935D02*
X383837Y73935D01*
X383837Y76079D02*
X379823Y76079D01*
X390823Y76517D02*
X394837Y76517D01*
X394837Y67503D01*
X390823Y67503D01*
X390823Y76517D01*
X390823Y69647D02*
X394837Y69647D01*
X394837Y71791D02*
X390823Y71791D01*
X390823Y73935D02*
X394837Y73935D01*
X394837Y76079D02*
X390823Y76079D01*
X354337Y76517D02*
X350323Y76517D01*
X354337Y76517D02*
X354337Y67503D01*
X350323Y67503D01*
X350323Y76517D01*
X350323Y69647D02*
X354337Y69647D01*
X354337Y71791D02*
X350323Y71791D01*
X350323Y73935D02*
X354337Y73935D01*
X354337Y76079D02*
X350323Y76079D01*
D19*
X307584Y95014D02*
X299076Y95014D01*
X307584Y95014D02*
X307584Y84006D01*
X299076Y84006D01*
X299076Y95014D01*
X299076Y86155D02*
X307584Y86155D01*
X307584Y88304D02*
X299076Y88304D01*
X299076Y90453D02*
X307584Y90453D01*
X307584Y92602D02*
X299076Y92602D01*
X299076Y94751D02*
X307584Y94751D01*
X307584Y139514D02*
X299076Y139514D01*
X307584Y139514D02*
X307584Y128506D01*
X299076Y128506D01*
X299076Y139514D01*
X299076Y130655D02*
X307584Y130655D01*
X307584Y132804D02*
X299076Y132804D01*
X299076Y134953D02*
X307584Y134953D01*
X307584Y137102D02*
X299076Y137102D01*
X299076Y139251D02*
X307584Y139251D01*
X401076Y139514D02*
X409584Y139514D01*
X409584Y128506D01*
X401076Y128506D01*
X401076Y139514D01*
X401076Y130655D02*
X409584Y130655D01*
X409584Y132804D02*
X401076Y132804D01*
X401076Y134953D02*
X409584Y134953D01*
X409584Y137102D02*
X401076Y137102D01*
X401076Y139251D02*
X409584Y139251D01*
X409584Y95014D02*
X401076Y95014D01*
X409584Y95014D02*
X409584Y84006D01*
X401076Y84006D01*
X401076Y95014D01*
X401076Y86155D02*
X409584Y86155D01*
X409584Y88304D02*
X401076Y88304D01*
X401076Y90453D02*
X409584Y90453D01*
X409584Y92602D02*
X401076Y92602D01*
X401076Y94751D02*
X409584Y94751D01*
D13*
X375033Y196344D02*
X369441Y196344D01*
X375033Y196344D02*
X375033Y184656D01*
X369441Y184656D01*
X369441Y196344D01*
X369441Y186825D02*
X375033Y186825D01*
X375033Y188994D02*
X369441Y188994D01*
X369441Y191163D02*
X375033Y191163D01*
X375033Y193332D02*
X369441Y193332D01*
X369441Y195501D02*
X375033Y195501D01*
X364619Y196344D02*
X359027Y196344D01*
X364619Y196344D02*
X364619Y184656D01*
X359027Y184656D01*
X359027Y196344D01*
X359027Y186825D02*
X364619Y186825D01*
X364619Y188994D02*
X359027Y188994D01*
X359027Y191163D02*
X364619Y191163D01*
X364619Y193332D02*
X359027Y193332D01*
X359027Y195501D02*
X364619Y195501D01*
D20*
X398780Y190500D03*
D21*
X455930Y539750D03*
X290830Y6350D03*
D10*
X683260Y520700D03*
X683260Y495300D03*
X683260Y469900D03*
X683260Y444500D03*
X683260Y419100D03*
X683260Y393700D03*
X683260Y368300D03*
X683260Y342900D03*
X683260Y317500D03*
X683260Y292100D03*
X683260Y266700D03*
X683260Y241300D03*
X683260Y215900D03*
X683260Y190500D03*
X683260Y165100D03*
X683260Y139700D03*
X480060Y241300D03*
X480060Y266700D03*
X480060Y292100D03*
X480060Y317500D03*
X480060Y342900D03*
X480060Y368300D03*
X480060Y393700D03*
X480060Y419100D03*
X480060Y444500D03*
X480060Y469900D03*
X480060Y495300D03*
X480060Y520700D03*
D11*
X552760Y49050D03*
X610560Y49050D03*
D12*
X670560Y25400D03*
X492760Y25400D03*
X492760Y558800D03*
X670560Y558800D03*
D13*
X589663Y18544D02*
X584071Y18544D01*
X589663Y18544D02*
X589663Y6856D01*
X584071Y6856D01*
X584071Y18544D01*
X584071Y9025D02*
X589663Y9025D01*
X589663Y11194D02*
X584071Y11194D01*
X584071Y13363D02*
X589663Y13363D01*
X589663Y15532D02*
X584071Y15532D01*
X584071Y17701D02*
X589663Y17701D01*
X579249Y18544D02*
X573657Y18544D01*
X579249Y18544D02*
X579249Y6856D01*
X573657Y6856D01*
X573657Y18544D01*
X573657Y9025D02*
X579249Y9025D01*
X579249Y11194D02*
X573657Y11194D01*
X573657Y13363D02*
X579249Y13363D01*
X579249Y15532D02*
X573657Y15532D01*
X573657Y17701D02*
X579249Y17701D01*
D14*
X501618Y68772D02*
X501618Y73788D01*
X501618Y68772D02*
X496602Y68772D01*
X496602Y73788D01*
X501618Y73788D01*
X501618Y70913D02*
X496602Y70913D01*
X496602Y73054D02*
X501618Y73054D01*
X501618Y78772D02*
X501618Y83788D01*
X501618Y78772D02*
X496602Y78772D01*
X496602Y83788D01*
X501618Y83788D01*
X501618Y80913D02*
X496602Y80913D01*
X496602Y83054D02*
X501618Y83054D01*
X496602Y104012D02*
X496602Y109028D01*
X501618Y109028D01*
X501618Y104012D01*
X496602Y104012D01*
X496602Y106153D02*
X501618Y106153D01*
X501618Y108294D02*
X496602Y108294D01*
X496602Y99028D02*
X496602Y94012D01*
X496602Y99028D02*
X501618Y99028D01*
X501618Y94012D01*
X496602Y94012D01*
X496602Y96153D02*
X501618Y96153D01*
X501618Y98294D02*
X496602Y98294D01*
D13*
X474216Y96518D02*
X474216Y102110D01*
X485904Y102110D01*
X485904Y96518D01*
X474216Y96518D01*
X474216Y98687D02*
X485904Y98687D01*
X485904Y100856D02*
X474216Y100856D01*
X474216Y91696D02*
X474216Y86104D01*
X474216Y91696D02*
X485904Y91696D01*
X485904Y86104D01*
X474216Y86104D01*
X474216Y88273D02*
X485904Y88273D01*
X485904Y90442D02*
X474216Y90442D01*
X474216Y81282D02*
X474216Y75690D01*
X474216Y81282D02*
X485904Y81282D01*
X485904Y75690D01*
X474216Y75690D01*
X474216Y77859D02*
X485904Y77859D01*
X485904Y80028D02*
X474216Y80028D01*
D15*
X593227Y153332D02*
X593227Y157868D01*
X593227Y153332D02*
X582191Y153332D01*
X582191Y157868D01*
X593227Y157868D01*
X593227Y155454D02*
X582191Y155454D01*
X582191Y157576D02*
X593227Y157576D01*
X593227Y162832D02*
X593227Y167368D01*
X593227Y162832D02*
X582191Y162832D01*
X582191Y167368D01*
X593227Y167368D01*
X593227Y164954D02*
X582191Y164954D01*
X582191Y167076D02*
X593227Y167076D01*
X593227Y172332D02*
X593227Y176868D01*
X593227Y172332D02*
X582191Y172332D01*
X582191Y176868D01*
X593227Y176868D01*
X593227Y174454D02*
X582191Y174454D01*
X582191Y176576D02*
X593227Y176576D01*
X619229Y176868D02*
X619229Y172332D01*
X608193Y172332D01*
X608193Y176868D01*
X619229Y176868D01*
X619229Y174454D02*
X608193Y174454D01*
X608193Y176576D02*
X619229Y176576D01*
X619229Y157868D02*
X619229Y153332D01*
X608193Y153332D01*
X608193Y157868D01*
X619229Y157868D01*
X619229Y155454D02*
X608193Y155454D01*
X608193Y157576D02*
X619229Y157576D01*
D14*
X577818Y157672D02*
X577818Y162688D01*
X577818Y157672D02*
X572802Y157672D01*
X572802Y162688D01*
X577818Y162688D01*
X577818Y159813D02*
X572802Y159813D01*
X572802Y161954D02*
X577818Y161954D01*
X577818Y167672D02*
X577818Y172688D01*
X577818Y167672D02*
X572802Y167672D01*
X572802Y172688D01*
X577818Y172688D01*
X577818Y169813D02*
X572802Y169813D01*
X572802Y171954D02*
X577818Y171954D01*
X628618Y162688D02*
X628618Y157672D01*
X623602Y157672D01*
X623602Y162688D01*
X628618Y162688D01*
X628618Y159813D02*
X623602Y159813D01*
X623602Y161954D02*
X628618Y161954D01*
X628618Y167672D02*
X628618Y172688D01*
X628618Y167672D02*
X623602Y167672D01*
X623602Y172688D01*
X628618Y172688D01*
X628618Y169813D02*
X623602Y169813D01*
X623602Y171954D02*
X628618Y171954D01*
X565118Y162688D02*
X565118Y157672D01*
X560102Y157672D01*
X560102Y162688D01*
X565118Y162688D01*
X565118Y159813D02*
X560102Y159813D01*
X560102Y161954D02*
X565118Y161954D01*
X565118Y167672D02*
X565118Y172688D01*
X565118Y167672D02*
X560102Y167672D01*
X560102Y172688D01*
X565118Y172688D01*
X565118Y169813D02*
X560102Y169813D01*
X560102Y171954D02*
X565118Y171954D01*
D16*
X544660Y172600D03*
X544660Y167600D03*
X544660Y162600D03*
X544660Y157600D03*
X529760Y157600D03*
X529760Y162600D03*
X529760Y167600D03*
X529760Y172600D03*
D14*
X529782Y181642D02*
X534798Y181642D01*
X529782Y181642D02*
X529782Y186658D01*
X534798Y186658D01*
X534798Y181642D01*
X534798Y183783D02*
X529782Y183783D01*
X529782Y185924D02*
X534798Y185924D01*
X539782Y181642D02*
X544798Y181642D01*
X539782Y181642D02*
X539782Y186658D01*
X544798Y186658D01*
X544798Y181642D01*
X544798Y183783D02*
X539782Y183783D01*
X539782Y185924D02*
X544798Y185924D01*
D17*
X613167Y245643D02*
X613167Y249657D01*
X613167Y245643D02*
X605653Y245643D01*
X605653Y249657D01*
X613167Y249657D01*
X613167Y247787D02*
X605653Y247787D01*
X613167Y236957D02*
X613167Y232943D01*
X605653Y232943D01*
X605653Y236957D01*
X613167Y236957D01*
X613167Y235087D02*
X605653Y235087D01*
X613167Y224257D02*
X613167Y220243D01*
X605653Y220243D01*
X605653Y224257D01*
X613167Y224257D01*
X613167Y222387D02*
X605653Y222387D01*
X613167Y211557D02*
X613167Y207543D01*
X605653Y207543D01*
X605653Y211557D01*
X613167Y211557D01*
X613167Y209687D02*
X605653Y209687D01*
X557667Y220243D02*
X557667Y224257D01*
X557667Y220243D02*
X550153Y220243D01*
X550153Y224257D01*
X557667Y224257D01*
X557667Y222387D02*
X550153Y222387D01*
X557667Y211557D02*
X557667Y207543D01*
X550153Y207543D01*
X550153Y211557D01*
X557667Y211557D01*
X557667Y209687D02*
X550153Y209687D01*
X557667Y232943D02*
X557667Y236957D01*
X557667Y232943D02*
X550153Y232943D01*
X550153Y236957D01*
X557667Y236957D01*
X557667Y235087D02*
X550153Y235087D01*
X557667Y245643D02*
X557667Y249657D01*
X557667Y245643D02*
X550153Y245643D01*
X550153Y249657D01*
X557667Y249657D01*
X557667Y247787D02*
X550153Y247787D01*
D14*
X617412Y251492D02*
X622428Y251492D01*
X617412Y251492D02*
X617412Y256508D01*
X622428Y256508D01*
X622428Y251492D01*
X622428Y253633D02*
X617412Y253633D01*
X617412Y255774D02*
X622428Y255774D01*
X627412Y251492D02*
X632428Y251492D01*
X627412Y251492D02*
X627412Y256508D01*
X632428Y256508D01*
X632428Y251492D01*
X632428Y253633D02*
X627412Y253633D01*
X627412Y255774D02*
X632428Y255774D01*
X622428Y226092D02*
X617412Y226092D01*
X617412Y231108D01*
X622428Y231108D01*
X622428Y226092D01*
X622428Y228233D02*
X617412Y228233D01*
X617412Y230374D02*
X622428Y230374D01*
X627412Y226092D02*
X632428Y226092D01*
X627412Y226092D02*
X627412Y231108D01*
X632428Y231108D01*
X632428Y226092D01*
X632428Y228233D02*
X627412Y228233D01*
X627412Y230374D02*
X632428Y230374D01*
D10*
X607060Y393700D03*
X581660Y393700D03*
X556260Y393700D03*
D15*
X498228Y172583D02*
X493692Y172583D01*
X493692Y183619D01*
X498228Y183619D01*
X498228Y172583D01*
X498228Y174705D02*
X493692Y174705D01*
X493692Y176827D02*
X498228Y176827D01*
X498228Y178949D02*
X493692Y178949D01*
X493692Y181071D02*
X498228Y181071D01*
X498228Y183193D02*
X493692Y183193D01*
X503192Y172583D02*
X507728Y172583D01*
X503192Y172583D02*
X503192Y183619D01*
X507728Y183619D01*
X507728Y172583D01*
X507728Y174705D02*
X503192Y174705D01*
X503192Y176827D02*
X507728Y176827D01*
X507728Y178949D02*
X503192Y178949D01*
X503192Y181071D02*
X507728Y181071D01*
X507728Y183193D02*
X503192Y183193D01*
X512692Y172583D02*
X517228Y172583D01*
X512692Y172583D02*
X512692Y183619D01*
X517228Y183619D01*
X517228Y172583D01*
X517228Y174705D02*
X512692Y174705D01*
X512692Y176827D02*
X517228Y176827D01*
X517228Y178949D02*
X512692Y178949D01*
X512692Y181071D02*
X517228Y181071D01*
X517228Y183193D02*
X512692Y183193D01*
X512692Y146581D02*
X517228Y146581D01*
X512692Y146581D02*
X512692Y157617D01*
X517228Y157617D01*
X517228Y146581D01*
X517228Y148703D02*
X512692Y148703D01*
X512692Y150825D02*
X517228Y150825D01*
X517228Y152947D02*
X512692Y152947D01*
X512692Y155069D02*
X517228Y155069D01*
X517228Y157191D02*
X512692Y157191D01*
X498228Y146581D02*
X493692Y146581D01*
X493692Y157617D01*
X498228Y157617D01*
X498228Y146581D01*
X498228Y148703D02*
X493692Y148703D01*
X493692Y150825D02*
X498228Y150825D01*
X498228Y152947D02*
X493692Y152947D01*
X493692Y155069D02*
X498228Y155069D01*
X498228Y157191D02*
X493692Y157191D01*
D14*
X515652Y140858D02*
X515652Y135842D01*
X515652Y140858D02*
X520668Y140858D01*
X520668Y135842D01*
X515652Y135842D01*
X515652Y137983D02*
X520668Y137983D01*
X520668Y140124D02*
X515652Y140124D01*
X515652Y130858D02*
X515652Y125842D01*
X515652Y130858D02*
X520668Y130858D01*
X520668Y125842D01*
X515652Y125842D01*
X515652Y127983D02*
X520668Y127983D01*
X520668Y130124D02*
X515652Y130124D01*
X512968Y199358D02*
X507952Y199358D01*
X512968Y199358D02*
X512968Y194342D01*
X507952Y194342D01*
X507952Y199358D01*
X507952Y196483D02*
X512968Y196483D01*
X512968Y198624D02*
X507952Y198624D01*
X502968Y199358D02*
X497952Y199358D01*
X502968Y199358D02*
X502968Y194342D01*
X497952Y194342D01*
X497952Y199358D01*
X497952Y196483D02*
X502968Y196483D01*
X502968Y198624D02*
X497952Y198624D01*
X539702Y237458D02*
X544718Y237458D01*
X544718Y232442D01*
X539702Y232442D01*
X539702Y237458D01*
X539702Y234583D02*
X544718Y234583D01*
X544718Y236724D02*
X539702Y236724D01*
X534718Y237458D02*
X529702Y237458D01*
X534718Y237458D02*
X534718Y232442D01*
X529702Y232442D01*
X529702Y237458D01*
X529702Y234583D02*
X534718Y234583D01*
X534718Y236724D02*
X529702Y236724D01*
X539702Y250158D02*
X544718Y250158D01*
X544718Y245142D01*
X539702Y245142D01*
X539702Y250158D01*
X539702Y247283D02*
X544718Y247283D01*
X544718Y249424D02*
X539702Y249424D01*
X534718Y250158D02*
X529702Y250158D01*
X534718Y250158D02*
X534718Y245142D01*
X529702Y245142D01*
X529702Y250158D01*
X529702Y247283D02*
X534718Y247283D01*
X534718Y249424D02*
X529702Y249424D01*
D13*
X677416Y71503D02*
X677416Y65911D01*
X677416Y71503D02*
X689104Y71503D01*
X689104Y65911D01*
X677416Y65911D01*
X677416Y68080D02*
X689104Y68080D01*
X689104Y70249D02*
X677416Y70249D01*
X677416Y61089D02*
X677416Y55497D01*
X677416Y61089D02*
X689104Y61089D01*
X689104Y55497D01*
X677416Y55497D01*
X677416Y57666D02*
X689104Y57666D01*
X689104Y59835D02*
X677416Y59835D01*
D14*
X507968Y125842D02*
X507968Y130858D01*
X507968Y125842D02*
X502952Y125842D01*
X502952Y130858D01*
X507968Y130858D01*
X507968Y127983D02*
X502952Y127983D01*
X502952Y130124D02*
X507968Y130124D01*
X507968Y135842D02*
X507968Y140858D01*
X507968Y135842D02*
X502952Y135842D01*
X502952Y140858D01*
X507968Y140858D01*
X507968Y137983D02*
X502952Y137983D01*
X502952Y140124D02*
X507968Y140124D01*
X495268Y130858D02*
X495268Y125842D01*
X490252Y125842D01*
X490252Y130858D01*
X495268Y130858D01*
X495268Y127983D02*
X490252Y127983D01*
X490252Y130124D02*
X495268Y130124D01*
X495268Y135842D02*
X495268Y140858D01*
X495268Y135842D02*
X490252Y135842D01*
X490252Y140858D01*
X495268Y140858D01*
X495268Y137983D02*
X490252Y137983D01*
X490252Y140124D02*
X495268Y140124D01*
D18*
X612969Y478159D02*
X616551Y478159D01*
X612969Y478159D02*
X612969Y483641D01*
X616551Y483641D01*
X616551Y478159D01*
X616551Y480334D02*
X612969Y480334D01*
X612969Y482509D02*
X616551Y482509D01*
X622969Y478159D02*
X626551Y478159D01*
X622969Y478159D02*
X622969Y483641D01*
X626551Y483641D01*
X626551Y478159D01*
X626551Y480334D02*
X622969Y480334D01*
X622969Y482509D02*
X626551Y482509D01*
X621551Y466659D02*
X617969Y466659D01*
X617969Y472141D01*
X621551Y472141D01*
X621551Y466659D01*
X621551Y468834D02*
X617969Y468834D01*
X617969Y471009D02*
X621551Y471009D01*
D14*
X622268Y448358D02*
X622268Y443342D01*
X617252Y443342D01*
X617252Y448358D01*
X622268Y448358D01*
X622268Y445483D02*
X617252Y445483D01*
X617252Y447624D02*
X622268Y447624D01*
X622268Y453342D02*
X622268Y458358D01*
X622268Y453342D02*
X617252Y453342D01*
X617252Y458358D01*
X622268Y458358D01*
X622268Y455483D02*
X617252Y455483D01*
X617252Y457624D02*
X622268Y457624D01*
D17*
X551517Y76517D02*
X547503Y76517D01*
X551517Y76517D02*
X551517Y67503D01*
X547503Y67503D01*
X547503Y76517D01*
X547503Y69647D02*
X551517Y69647D01*
X551517Y71791D02*
X547503Y71791D01*
X547503Y73935D02*
X551517Y73935D01*
X551517Y76079D02*
X547503Y76079D01*
X558503Y76517D02*
X562517Y76517D01*
X562517Y67503D01*
X558503Y67503D01*
X558503Y76517D01*
X558503Y69647D02*
X562517Y69647D01*
X562517Y71791D02*
X558503Y71791D01*
X558503Y73935D02*
X562517Y73935D01*
X562517Y76079D02*
X558503Y76079D01*
X569503Y76517D02*
X573517Y76517D01*
X573517Y67503D01*
X569503Y67503D01*
X569503Y76517D01*
X569503Y69647D02*
X573517Y69647D01*
X573517Y71791D02*
X569503Y71791D01*
X569503Y73935D02*
X573517Y73935D01*
X573517Y76079D02*
X569503Y76079D01*
X577003Y76517D02*
X581017Y76517D01*
X581017Y67503D01*
X577003Y67503D01*
X577003Y76517D01*
X577003Y69647D02*
X581017Y69647D01*
X581017Y71791D02*
X577003Y71791D01*
X577003Y73935D02*
X581017Y73935D01*
X581017Y76079D02*
X577003Y76079D01*
X591503Y76517D02*
X595517Y76517D01*
X595517Y67503D01*
X591503Y67503D01*
X591503Y76517D01*
X591503Y69647D02*
X595517Y69647D01*
X595517Y71791D02*
X591503Y71791D01*
X591503Y73935D02*
X595517Y73935D01*
X595517Y76079D02*
X591503Y76079D01*
X602503Y76517D02*
X606517Y76517D01*
X606517Y67503D01*
X602503Y67503D01*
X602503Y76517D01*
X602503Y69647D02*
X606517Y69647D01*
X606517Y71791D02*
X602503Y71791D01*
X602503Y73935D02*
X606517Y73935D01*
X606517Y76079D02*
X602503Y76079D01*
X613503Y76517D02*
X617517Y76517D01*
X617517Y67503D01*
X613503Y67503D01*
X613503Y76517D01*
X613503Y69647D02*
X617517Y69647D01*
X617517Y71791D02*
X613503Y71791D01*
X613503Y73935D02*
X617517Y73935D01*
X617517Y76079D02*
X613503Y76079D01*
X624503Y76517D02*
X628517Y76517D01*
X628517Y67503D01*
X624503Y67503D01*
X624503Y76517D01*
X624503Y69647D02*
X628517Y69647D01*
X628517Y71791D02*
X624503Y71791D01*
X624503Y73935D02*
X628517Y73935D01*
X628517Y76079D02*
X624503Y76079D01*
X588017Y76517D02*
X584003Y76517D01*
X588017Y76517D02*
X588017Y67503D01*
X584003Y67503D01*
X584003Y76517D01*
X584003Y69647D02*
X588017Y69647D01*
X588017Y71791D02*
X584003Y71791D01*
X584003Y73935D02*
X588017Y73935D01*
X588017Y76079D02*
X584003Y76079D01*
D19*
X541264Y95014D02*
X532756Y95014D01*
X541264Y95014D02*
X541264Y84006D01*
X532756Y84006D01*
X532756Y95014D01*
X532756Y86155D02*
X541264Y86155D01*
X541264Y88304D02*
X532756Y88304D01*
X532756Y90453D02*
X541264Y90453D01*
X541264Y92602D02*
X532756Y92602D01*
X532756Y94751D02*
X541264Y94751D01*
X541264Y139514D02*
X532756Y139514D01*
X541264Y139514D02*
X541264Y128506D01*
X532756Y128506D01*
X532756Y139514D01*
X532756Y130655D02*
X541264Y130655D01*
X541264Y132804D02*
X532756Y132804D01*
X532756Y134953D02*
X541264Y134953D01*
X541264Y137102D02*
X532756Y137102D01*
X532756Y139251D02*
X541264Y139251D01*
X634756Y139514D02*
X643264Y139514D01*
X643264Y128506D01*
X634756Y128506D01*
X634756Y139514D01*
X634756Y130655D02*
X643264Y130655D01*
X643264Y132804D02*
X634756Y132804D01*
X634756Y134953D02*
X643264Y134953D01*
X643264Y137102D02*
X634756Y137102D01*
X634756Y139251D02*
X643264Y139251D01*
X643264Y95014D02*
X634756Y95014D01*
X643264Y95014D02*
X643264Y84006D01*
X634756Y84006D01*
X634756Y95014D01*
X634756Y86155D02*
X643264Y86155D01*
X643264Y88304D02*
X634756Y88304D01*
X634756Y90453D02*
X643264Y90453D01*
X643264Y92602D02*
X634756Y92602D01*
X634756Y94751D02*
X643264Y94751D01*
D13*
X608713Y196344D02*
X603121Y196344D01*
X608713Y196344D02*
X608713Y184656D01*
X603121Y184656D01*
X603121Y196344D01*
X603121Y186825D02*
X608713Y186825D01*
X608713Y188994D02*
X603121Y188994D01*
X603121Y191163D02*
X608713Y191163D01*
X608713Y193332D02*
X603121Y193332D01*
X603121Y195501D02*
X608713Y195501D01*
X598299Y196344D02*
X592707Y196344D01*
X598299Y196344D02*
X598299Y184656D01*
X592707Y184656D01*
X592707Y196344D01*
X592707Y186825D02*
X598299Y186825D01*
X598299Y188994D02*
X592707Y188994D01*
X592707Y191163D02*
X598299Y191163D01*
X598299Y193332D02*
X592707Y193332D01*
X592707Y195501D02*
X598299Y195501D01*
D20*
X632460Y190500D03*
D21*
X689610Y539750D03*
X524510Y6350D03*
D22*
X-26238Y582930D03*
X722198Y582930D03*
D23*
X-35293Y63500D02*
X-35290Y63722D01*
X-35282Y63944D01*
X-35268Y64166D01*
X-35249Y64388D01*
X-35225Y64608D01*
X-35195Y64829D01*
X-35160Y65048D01*
X-35119Y65267D01*
X-35073Y65484D01*
X-35022Y65700D01*
X-34965Y65915D01*
X-34903Y66129D01*
X-34836Y66340D01*
X-34764Y66551D01*
X-34686Y66759D01*
X-34604Y66965D01*
X-34516Y67169D01*
X-34424Y67372D01*
X-34326Y67571D01*
X-34224Y67768D01*
X-34117Y67963D01*
X-34005Y68155D01*
X-33888Y68344D01*
X-33767Y68531D01*
X-33641Y68714D01*
X-33511Y68894D01*
X-33376Y69071D01*
X-33238Y69244D01*
X-33095Y69414D01*
X-32947Y69581D01*
X-32796Y69744D01*
X-32641Y69903D01*
X-32482Y70058D01*
X-32319Y70209D01*
X-32152Y70357D01*
X-31982Y70500D01*
X-31809Y70638D01*
X-31632Y70773D01*
X-31452Y70903D01*
X-31269Y71029D01*
X-31082Y71150D01*
X-30893Y71267D01*
X-30701Y71379D01*
X-30506Y71486D01*
X-30309Y71588D01*
X-30110Y71686D01*
X-29907Y71778D01*
X-29703Y71866D01*
X-29497Y71948D01*
X-29289Y72026D01*
X-29078Y72098D01*
X-28867Y72165D01*
X-28653Y72227D01*
X-28438Y72284D01*
X-28222Y72335D01*
X-28005Y72381D01*
X-27786Y72422D01*
X-27567Y72457D01*
X-27346Y72487D01*
X-27126Y72511D01*
X-26904Y72530D01*
X-26682Y72544D01*
X-26460Y72552D01*
X-26238Y72555D01*
X-26016Y72552D01*
X-25794Y72544D01*
X-25572Y72530D01*
X-25350Y72511D01*
X-25130Y72487D01*
X-24909Y72457D01*
X-24690Y72422D01*
X-24471Y72381D01*
X-24254Y72335D01*
X-24038Y72284D01*
X-23823Y72227D01*
X-23609Y72165D01*
X-23398Y72098D01*
X-23187Y72026D01*
X-22979Y71948D01*
X-22773Y71866D01*
X-22569Y71778D01*
X-22366Y71686D01*
X-22167Y71588D01*
X-21970Y71486D01*
X-21775Y71379D01*
X-21583Y71267D01*
X-21394Y71150D01*
X-21207Y71029D01*
X-21024Y70903D01*
X-20844Y70773D01*
X-20667Y70638D01*
X-20494Y70500D01*
X-20324Y70357D01*
X-20157Y70209D01*
X-19994Y70058D01*
X-19835Y69903D01*
X-19680Y69744D01*
X-19529Y69581D01*
X-19381Y69414D01*
X-19238Y69244D01*
X-19100Y69071D01*
X-18965Y68894D01*
X-18835Y68714D01*
X-18709Y68531D01*
X-18588Y68344D01*
X-18471Y68155D01*
X-18359Y67963D01*
X-18252Y67768D01*
X-18150Y67571D01*
X-18052Y67372D01*
X-17960Y67169D01*
X-17872Y66965D01*
X-17790Y66759D01*
X-17712Y66551D01*
X-17640Y66340D01*
X-17573Y66129D01*
X-17511Y65915D01*
X-17454Y65700D01*
X-17403Y65484D01*
X-17357Y65267D01*
X-17316Y65048D01*
X-17281Y64829D01*
X-17251Y64608D01*
X-17227Y64388D01*
X-17208Y64166D01*
X-17194Y63944D01*
X-17186Y63722D01*
X-17183Y63500D01*
X-17186Y63278D01*
X-17194Y63056D01*
X-17208Y62834D01*
X-17227Y62612D01*
X-17251Y62392D01*
X-17281Y62171D01*
X-17316Y61952D01*
X-17357Y61733D01*
X-17403Y61516D01*
X-17454Y61300D01*
X-17511Y61085D01*
X-17573Y60871D01*
X-17640Y60660D01*
X-17712Y60449D01*
X-17790Y60241D01*
X-17872Y60035D01*
X-17960Y59831D01*
X-18052Y59628D01*
X-18150Y59429D01*
X-18252Y59232D01*
X-18359Y59037D01*
X-18471Y58845D01*
X-18588Y58656D01*
X-18709Y58469D01*
X-18835Y58286D01*
X-18965Y58106D01*
X-19100Y57929D01*
X-19238Y57756D01*
X-19381Y57586D01*
X-19529Y57419D01*
X-19680Y57256D01*
X-19835Y57097D01*
X-19994Y56942D01*
X-20157Y56791D01*
X-20324Y56643D01*
X-20494Y56500D01*
X-20667Y56362D01*
X-20844Y56227D01*
X-21024Y56097D01*
X-21207Y55971D01*
X-21394Y55850D01*
X-21583Y55733D01*
X-21775Y55621D01*
X-21970Y55514D01*
X-22167Y55412D01*
X-22366Y55314D01*
X-22569Y55222D01*
X-22773Y55134D01*
X-22979Y55052D01*
X-23187Y54974D01*
X-23398Y54902D01*
X-23609Y54835D01*
X-23823Y54773D01*
X-24038Y54716D01*
X-24254Y54665D01*
X-24471Y54619D01*
X-24690Y54578D01*
X-24909Y54543D01*
X-25130Y54513D01*
X-25350Y54489D01*
X-25572Y54470D01*
X-25794Y54456D01*
X-26016Y54448D01*
X-26238Y54445D01*
X-26460Y54448D01*
X-26682Y54456D01*
X-26904Y54470D01*
X-27126Y54489D01*
X-27346Y54513D01*
X-27567Y54543D01*
X-27786Y54578D01*
X-28005Y54619D01*
X-28222Y54665D01*
X-28438Y54716D01*
X-28653Y54773D01*
X-28867Y54835D01*
X-29078Y54902D01*
X-29289Y54974D01*
X-29497Y55052D01*
X-29703Y55134D01*
X-29907Y55222D01*
X-30110Y55314D01*
X-30309Y55412D01*
X-30506Y55514D01*
X-30701Y55621D01*
X-30893Y55733D01*
X-31082Y55850D01*
X-31269Y55971D01*
X-31452Y56097D01*
X-31632Y56227D01*
X-31809Y56362D01*
X-31982Y56500D01*
X-32152Y56643D01*
X-32319Y56791D01*
X-32482Y56942D01*
X-32641Y57097D01*
X-32796Y57256D01*
X-32947Y57419D01*
X-33095Y57586D01*
X-33238Y57756D01*
X-33376Y57929D01*
X-33511Y58106D01*
X-33641Y58286D01*
X-33767Y58469D01*
X-33888Y58656D01*
X-34005Y58845D01*
X-34117Y59037D01*
X-34224Y59232D01*
X-34326Y59429D01*
X-34424Y59628D01*
X-34516Y59831D01*
X-34604Y60035D01*
X-34686Y60241D01*
X-34764Y60449D01*
X-34836Y60660D01*
X-34903Y60871D01*
X-34965Y61085D01*
X-35022Y61300D01*
X-35073Y61516D01*
X-35119Y61733D01*
X-35160Y61952D01*
X-35195Y62171D01*
X-35225Y62392D01*
X-35249Y62612D01*
X-35268Y62834D01*
X-35282Y63056D01*
X-35290Y63278D01*
X-35293Y63500D01*
D24*
X-26238Y63500D03*
M02*
